<svg width="41" height="68" viewBox="0 0 41 68" fill="none" xmlns="http://www.w3.org/2000/svg">
<path d="M37.8703 57.2312C37.1957 59.732 36.2822 60.6762 35.2613 60.606C33.8224 65.1356 32.0253 67.9936 32.0253 67.9936H10.3109L14.2872 57.2312C14.2872 57.2312 15.3141 53.9968 15.4932 50.3987C15.6723 46.8069 14.2872 42.5645 13.1409 41.6331C13.1409 41.6331 15.5529 46.2073 14.2872 52.1977C13.0214 58.1882 10.3706 54.5518 10.3706 51.6172C10.3706 51.6172 6.96146 60 6.08978 51.2982C6.08978 51.2982 3.47474 56.8421 1.33733 54.0159C2.91352 44.2934 7.92867 39.7064 7.92867 39.7064L9.94667 34.4879C9.94667 34.4879 32.5507 35.5406 33.2194 35.6937C33.2194 35.6937 33.6552 36.2232 34.2761 37.1929C34.718 37.8819 35.2553 38.7878 35.8046 39.8851C37.7629 43.8022 39.7988 50.1052 37.8703 57.2312Z" fill="#BA1B68"/>
<path d="M15.5112 49.7544C15.5112 49.9713 15.5052 50.1882 15.4932 50.4051C15.3141 53.9968 14.2872 57.2376 14.2872 57.2376L14.1738 57.5503L14.0365 57.9203L10.3109 67.9937H0C0.441811 65.6524 0.710481 63.7066 0.871682 62.1181V62.1117L0.877652 62.0798L1.02691 61.059L1.32543 54.1053C1.3314 54.0797 1.3314 54.0542 1.33738 54.0287C3.47479 56.8549 6.08983 51.311 6.08983 51.311C6.38835 54.2839 6.98539 55.26 7.63617 55.26C7.65408 55.26 7.66602 55.26 7.68393 55.26H7.6899C7.70781 55.26 7.71975 55.2536 7.73767 55.2536C7.75558 55.2536 7.76752 55.2472 7.78543 55.2472C7.79737 55.2472 7.80931 55.2408 7.82125 55.2408C7.82722 55.2408 7.83319 55.2344 7.83916 55.2344C7.84513 55.2344 7.84514 55.2345 7.85111 55.2281C7.86305 55.2217 7.86902 55.2217 7.88096 55.2153C7.97051 55.1834 8.0541 55.1388 8.14366 55.0813C8.1556 55.075 8.17351 55.0622 8.18545 55.0494C8.20336 55.0367 8.22127 55.0239 8.23321 55.0112C8.26903 54.9856 8.31083 54.9537 8.34665 54.9218C8.35859 54.9091 8.37053 54.8963 8.38844 54.8899C8.40635 54.8772 8.42426 54.8581 8.43621 54.8453C8.45412 54.8262 8.47203 54.8134 8.48397 54.7943C8.49591 54.7815 8.50785 54.7687 8.52576 54.756C8.53173 54.7496 8.53173 54.7496 8.5377 54.7432C8.57353 54.7113 8.60338 54.673 8.6392 54.6348C8.7407 54.5199 8.83622 54.3987 8.93772 54.2647C8.94966 54.2456 8.96757 54.2265 8.97952 54.201C8.98549 54.1946 8.98548 54.1882 8.99146 54.1818C9.00937 54.1563 9.02728 54.1308 9.04519 54.1053C9.09892 54.0223 9.15266 53.9458 9.20639 53.8628C9.23027 53.8246 9.26013 53.7799 9.28401 53.7352C9.29595 53.7097 9.31386 53.6906 9.3258 53.6651C9.47506 53.4226 9.61238 53.1675 9.73776 52.9314C9.7497 52.9059 9.76761 52.874 9.77955 52.8485C9.95866 52.504 10.1079 52.185 10.2094 51.9617C10.2154 51.9489 10.2154 51.9426 10.2214 51.9298C10.2333 51.9107 10.2393 51.8915 10.2452 51.8724C10.2512 51.8596 10.2572 51.8469 10.2632 51.8341C10.3229 51.7001 10.3527 51.6172 10.3527 51.6172C10.3527 51.6363 10.3527 51.6491 10.3527 51.6682C10.3527 51.7257 10.3527 51.7767 10.3587 51.8341C10.3587 51.8596 10.3587 51.8852 10.3647 51.9171C10.3647 51.9298 10.3647 51.9426 10.3647 51.9553C10.3647 51.9808 10.3706 52 10.3706 52.0255C10.3706 52.0446 10.3766 52.0638 10.3766 52.0893C10.3766 52.1148 10.3826 52.1467 10.3826 52.1722C10.3885 52.2041 10.3885 52.2297 10.3945 52.2616C10.4005 52.2871 10.4005 52.319 10.4064 52.3445C10.4124 52.3764 10.4124 52.4083 10.4184 52.4338C10.4303 52.5104 10.4423 52.5933 10.4602 52.6698C10.4721 52.74 10.49 52.8102 10.5079 52.8868C10.5139 52.9059 10.5199 52.925 10.5199 52.9442C10.5318 52.9888 10.5438 53.0399 10.5557 53.0845C10.5676 53.1356 10.5856 53.193 10.6035 53.244C10.6094 53.2695 10.6214 53.295 10.6274 53.3206C10.6453 53.3716 10.6632 53.429 10.6811 53.4801C10.699 53.5311 10.7169 53.5821 10.7348 53.6332C10.7408 53.6587 10.7527 53.6778 10.7587 53.7033C10.7706 53.7289 10.7826 53.7544 10.7886 53.7863C10.8005 53.8118 10.8065 53.8373 10.8184 53.8628C10.8602 53.9585 10.902 54.0542 10.9498 54.1499C10.9617 54.1754 10.9736 54.1946 10.9856 54.2201C10.9975 54.2456 11.0095 54.2647 11.0214 54.2903C11.0333 54.3094 11.0453 54.3349 11.0572 54.3541C11.0811 54.3987 11.105 54.437 11.1289 54.4817C11.1408 54.5008 11.1527 54.5199 11.1647 54.5455C11.2423 54.6667 11.3199 54.7751 11.4035 54.8772C11.4154 54.8963 11.4334 54.9091 11.4453 54.9282C11.5289 55.0239 11.6184 55.1069 11.708 55.1834C11.7259 55.1962 11.7379 55.2089 11.7558 55.2153C11.8513 55.2855 11.9468 55.3365 12.0423 55.3812C12.0543 55.3876 12.0662 55.3939 12.0841 55.3939C12.2095 55.4386 12.3409 55.4514 12.4722 55.4386C12.4842 55.4386 12.5021 55.4322 12.514 55.4322C12.5259 55.4322 12.5439 55.4258 12.5558 55.4258C12.5618 55.4258 12.5618 55.4258 12.5677 55.4258C12.5797 55.4195 12.5916 55.4195 12.6036 55.4131C12.6215 55.4067 12.6394 55.4003 12.6513 55.3939C12.6633 55.3876 12.6812 55.3812 12.6931 55.3748C12.717 55.3684 12.7349 55.3557 12.7588 55.3429C12.7827 55.3301 12.8006 55.3174 12.8245 55.3046C12.8424 55.2919 12.8603 55.2791 12.8782 55.2663C12.8901 55.26 12.9021 55.2472 12.92 55.2408L12.926 55.2344C12.9439 55.2217 12.9558 55.2089 12.9737 55.1962C12.9857 55.1834 13.0036 55.1707 13.0155 55.1579C13.0454 55.1324 13.0752 55.1005 13.1051 55.075L13.111 55.0686C13.1349 55.0431 13.1648 55.0112 13.1887 54.9856C13.2364 54.9282 13.2842 54.8708 13.332 54.8006C13.3499 54.7687 13.3737 54.7432 13.3917 54.7113C13.4036 54.6922 13.4155 54.673 13.4275 54.6475C13.4394 54.6284 13.4514 54.6029 13.4693 54.5837C13.5051 54.5263 13.5409 54.4625 13.5708 54.3923C13.5767 54.386 13.5767 54.3796 13.5827 54.3732C13.5947 54.3477 13.6066 54.3222 13.6185 54.2966C13.6305 54.2711 13.6424 54.2456 13.6544 54.2137C13.6663 54.1946 13.6723 54.1691 13.6842 54.1435C13.6902 54.1244 13.6961 54.1116 13.7081 54.0925C13.7141 54.0734 13.72 54.0606 13.732 54.0415C13.7439 54.0159 13.7499 53.9904 13.7618 53.9649C13.7857 53.9011 13.8156 53.8309 13.8394 53.7608C13.8514 53.7289 13.8633 53.697 13.8753 53.6587C13.8872 53.6204 13.8991 53.5885 13.9111 53.5502C13.923 53.5183 13.935 53.4864 13.9409 53.4545C13.9529 53.4163 13.9648 53.3844 13.9768 53.3461C14.0126 53.2376 14.0424 53.1164 14.0783 53.0016C14.0962 52.925 14.12 52.8485 14.138 52.7719C14.1559 52.6954 14.1738 52.6188 14.1977 52.5359C14.2036 52.504 14.2156 52.4657 14.2215 52.4274C14.2395 52.3572 14.2514 52.2871 14.2693 52.2105C15.535 46.2201 13.123 41.6459 13.123 41.6459C13.1349 41.6586 13.1469 41.665 13.1588 41.6778C13.1708 41.6905 13.1827 41.6969 13.1946 41.7097C13.2245 41.7352 13.2484 41.7607 13.2782 41.7926C13.2961 41.8117 13.314 41.8309 13.332 41.85C13.3379 41.8564 13.3379 41.8564 13.3439 41.8628C13.3678 41.8883 13.3917 41.9202 13.4155 41.9521C13.4394 41.984 13.4633 42.0159 13.4932 42.0478C13.5051 42.0605 13.517 42.0797 13.529 42.0924C13.5529 42.1243 13.5708 42.1499 13.5947 42.1818C13.6126 42.2073 13.6305 42.2328 13.6424 42.2583C13.6603 42.2838 13.6782 42.3094 13.6961 42.3413C13.7141 42.3668 13.732 42.3987 13.7499 42.4242C13.7678 42.4561 13.7857 42.4816 13.8036 42.5135C13.8215 42.5454 13.8394 42.5773 13.8573 42.6028C13.8753 42.6347 13.8932 42.6666 13.9111 42.6985C13.929 42.7304 13.9469 42.7623 13.9648 42.7942C14.0006 42.858 14.0305 42.9282 14.0663 42.9984C14.0842 43.0303 14.1021 43.0685 14.1141 43.1068C14.132 43.1387 14.1439 43.177 14.1618 43.2089C14.1857 43.2599 14.2096 43.3173 14.2335 43.3684C14.2633 43.4322 14.2872 43.496 14.3111 43.5598C14.3111 43.5598 14.3111 43.5598 14.3111 43.5661C14.341 43.6363 14.3708 43.7129 14.3947 43.783C14.4783 44 14.5559 44.2232 14.6335 44.4593C14.6514 44.5039 14.6634 44.5486 14.6753 44.5933C14.6932 44.6379 14.7051 44.6826 14.7171 44.7336C14.7768 44.9314 14.8365 45.1291 14.8902 45.3333C14.9141 45.4226 14.938 45.5119 14.9619 45.6012C14.9738 45.6587 14.9917 45.7097 15.0037 45.7671C15.0276 45.8628 15.0455 45.9585 15.0693 46.0542C15.0873 46.1371 15.1052 46.2201 15.1231 46.3094C15.1828 46.5965 15.2365 46.8899 15.2843 47.1898C15.2902 47.2344 15.2962 47.2727 15.3022 47.3174C15.3559 47.681 15.4037 48.051 15.4335 48.421C15.4395 48.4593 15.4395 48.504 15.4455 48.5422C15.4455 48.5678 15.4515 48.5869 15.4515 48.6124C15.4574 48.6571 15.4574 48.7081 15.4634 48.7528C15.4694 48.8421 15.4753 48.925 15.4813 49.0079C15.4813 49.0462 15.4873 49.0909 15.4873 49.1292C15.4932 49.2376 15.4932 49.3397 15.4992 49.4481C15.5112 49.5566 15.5112 49.6587 15.5112 49.7544Z" fill="#4B80B2"/>
<path d="M34.2822 37.1929C33.6613 36.2232 33.2254 35.6937 33.2254 35.6937C33.518 35.7575 33.918 36.4401 34.2822 37.1929Z" fill="#4B80B2"/>
<path d="M37.8704 57.2312L36.6046 68H32.0194C32.0194 68 33.8224 65.1356 35.2553 60.6124C36.0912 57.984 36.8017 54.8006 36.9688 51.2791L37.8704 57.2312Z" fill="#4B80B2"/>
<path d="M36.8196 68H32.2104C32.2104 68 34.0194 65.1228 35.4703 60.5678C36.3061 57.9266 37.0226 54.7177 37.1897 51.1834C37.3688 47.4321 36.927 43.3045 35.3628 39.094C35.3628 39.094 35.6195 39.3045 36.0195 39.7192C38.3361 42.1243 45.5006 51.4768 36.8196 68Z" fill="#87184E"/>
<path d="M15.5888 50.2966C15.4037 53.9075 14.3768 57.1674 14.3768 57.1674C14.3768 57.1674 14.3768 57.1674 14.3768 57.1738L14.0424 57.9202L13.8812 58.2775L11.714 62.0606L2.16129 64.8485L1.03885 61.059L1.33737 54.1052V54.0606L1.34334 53.9266C1.34931 53.933 1.34931 53.9394 1.35528 53.9457L1.36126 53.9521C3.51061 56.7847 6.13759 51.2089 6.13759 51.2089C6.67493 56.5422 8.15559 55.496 9.23027 53.8628C9.77955 53.0271 10.2273 52.0382 10.3826 51.6746C10.4244 51.5789 10.4423 51.5279 10.4423 51.5279C10.4423 53.6842 11.8692 56.2233 13.1349 55.0686C13.6006 54.6475 14.0365 53.7288 14.3827 52.1084C15.4216 47.1961 14.0006 43.2344 13.4394 41.9329C13.314 41.6395 13.2305 41.48 13.2305 41.48C14.3768 42.4242 15.7739 46.6857 15.5888 50.2966Z" fill="#A4185C"/>
<path d="M14.3708 57.1738L10.3706 67.9936H0C0.441811 65.6523 0.710481 63.7066 0.871682 62.118V62.1116L0.877652 62.0798L1.02691 61.059C2.81804 62.9729 5.27188 57.6268 5.27188 57.6268C6.00027 65.9905 9.82135 57.6268 9.82135 57.6268C10.1378 64.4274 13.326 59.0877 14.1678 57.5566C14.2753 57.3652 14.341 57.2312 14.3648 57.193C14.3708 57.1802 14.3708 57.1802 14.3708 57.1738Z" fill="#87184E"/>
<path d="M36.8256 43.8404C36.7539 43.8085 36.6823 43.7766 36.6106 43.7447C34.1449 42.641 33.2254 41.5883 32.9508 41.1992C32.8791 41.0971 32.8493 41.0397 32.8493 41.0397C32.8433 41.0525 32.8373 41.0588 32.8314 41.0716C32.3776 41.8435 32.8493 44.5485 32.8493 44.5485C30.27 44.8228 27.4878 39.9679 27.4878 39.9679C25.4758 44.9695 20.783 44.5421 20.783 44.5421C21.5055 40.6697 20.4248 39.6489 20.4248 39.6489C17.7142 43.5724 13.4096 42.9281 13.4096 42.9281C14.8007 41.314 14.544 38.137 14.544 38.137C12.5439 40.3762 7.60632 42.0923 7.52871 42.1179C7.60632 42.086 7.68394 41.7542 7.76753 41.2694C7.9944 39.8722 8.21531 37.1992 8.26904 36.893C8.90788 33.1736 9.74971 29.4607 10.9975 25.9136C11.6065 24.1911 12.2991 22.4112 13.2305 20.8227C13.3021 20.7015 13.3738 20.5803 13.4514 20.4591C21.1831 7.91675 32.4075 17.4926 32.6224 17.5563C33.0164 17.92 33.3986 18.3091 33.7448 18.7111C34.9031 20.0508 35.7031 21.5372 35.4822 22.8578V22.8642C35.0046 25.7414 34.8255 28.4272 34.8314 30.8515C34.8314 30.9344 34.8314 31.0237 34.8314 31.1066C34.8314 31.2725 34.8314 31.432 34.8374 31.5979C34.9747 39.0493 36.8256 43.8404 36.8256 43.8404Z" fill="#F4E1EF"/>
<path d="M24.2936 27.196C24.2936 27.196 26.5982 27.7191 28.5446 25.499C29.3387 24.4911 30.0551 23.1322 30.0551 23.1322C30.0551 23.1322 31.7567 20.7909 34.915 22.7048C38.0734 24.6123 37.5301 31.8212 35.8225 33.7032L35.6434 33.3013L35.6195 33.7032C35.6195 33.7032 35.0762 30.003 34.0851 31.4448C34.0851 31.4448 30.9865 33.4225 27.3624 31.9297C23.7384 30.4369 23.41 27.4767 24.2936 27.196Z" fill="#FFB83C"/>
<path d="M35.2672 32.1593C35.2672 32.1593 33.3627 30.2454 30.5387 30.8515C27.7147 31.4575 24.9563 30.0285 24.8966 28.1912C24.8966 27.5341 25.9892 28.759 26.3594 29.0779C26.7236 29.4033 27.5654 30.1689 31.2193 29.9137C34.8613 29.6521 35.2672 32.1593 35.2672 32.1593Z" fill="#1B222D"/>
<path d="M26.3773 23.2789C26.1743 24.6761 25.0877 25.3013 24.1026 25.3013C23.1174 25.3013 22.0249 24.6761 21.8219 23.2789C21.792 23.0812 21.8338 22.8834 21.9293 22.7622C21.989 22.6856 22.0666 22.6473 22.1502 22.6473H22.1562C22.3413 22.6473 22.4905 22.8387 22.5323 23.1449C22.6697 24.0955 23.416 24.5229 24.0966 24.5229C24.7772 24.5229 25.5235 24.0955 25.6608 23.1449C25.7086 22.8387 25.8519 22.6473 26.0429 22.6473C26.1325 22.6473 26.2101 22.6856 26.2698 22.7622C26.3654 22.8898 26.4012 23.0812 26.3773 23.2789Z" fill="#1B222D"/>
<path d="M32.9149 25.9201C33.2348 25.9201 33.4941 25.643 33.4941 25.3013C33.4941 24.9595 33.2348 24.6824 32.9149 24.6824C32.5951 24.6824 32.3358 24.9595 32.3358 25.3013C32.3358 25.643 32.5951 25.9201 32.9149 25.9201Z" fill="#1B222D"/>
<path d="M30.6536 5.2885L26.7422 7.51327L28.2335 11.1186C28.3487 11.3947 28.2199 11.6973 27.9217 11.8726C27.7725 11.9575 27.5963 12 27.42 12C27.2438 12 27.0675 11.9575 26.9184 11.8726L23.007 9.64779L19.0956 11.8726C18.7973 12.0425 18.3838 12.0425 18.0856 11.8726C17.7873 11.7027 17.6585 11.3947 17.7737 11.1186L19.2651 7.51327L15.3537 5.2885C15.0554 5.11858 14.9266 4.81062 15.0419 4.53451C15.1571 4.25841 15.4893 4.07257 15.8553 4.07257H20.6886L22.18 0.467257C22.2952 0.191151 22.6274 0 22.9934 0C23.3663 0 23.6917 0.185841 23.8069 0.467257L25.2983 4.07257H30.1316C30.5044 4.07257 30.8298 4.25841 30.945 4.53451C31.0806 4.81593 30.9586 5.11858 30.6536 5.2885Z" fill="#87184E"/>
</svg>
