<svg width="21" height="16" viewBox="0 0 21 16" fill="none" xmlns="http://www.w3.org/2000/svg">
<path fill-rule="evenodd" clip-rule="evenodd" d="M21 1.00408H17.8027L16.1315 5.14534L14.3875 1.00408H11.1177V7.45234L7.77506 1.00408H5.08662L1.74399 7.59232H4.06916L4.72313 6.27475H8.21111L8.86508 7.59232H13.2249V3.01186L15.1868 7.59232H17.0034L18.9653 3.01186V7.59232H21V8.59622H18.3113L16.1315 10.6668L13.8789 8.59622H4.65057V15.1845H13.8063L16.0587 13.0512L18.3113 15.1845H21V16H17.8027L16.0587 14.3687L14.3147 16H3.48798V8.47071H0L4.35986 0H8.57438L10.1002 2.88635V0H15.3322L16.2041 2.19614L17.0762 0H21V1.00408ZM21 10.0393L19.0381 11.8589L21 13.6785V15.1845L17.4395 11.8589L21 8.59622V10.0393ZM11.1177 15.1845V13.6159H6.75782V12.612H11.0449V11.106H6.75782V10.1021H11.1177V8.59622L14.7508 11.8589L11.1177 15.1845ZM5.3771 4.83148L6.39455 2.69818L7.41179 4.83148H5.3771Z" fill="white"/>
</svg>
