<svg width="28" height="12" viewBox="0 0 28 12" fill="none" xmlns="http://www.w3.org/2000/svg">
<path d="M5.24274 1.46752C5.56933 1.07247 5.79095 0.542038 5.7325 0C5.25442 0.0229898 4.671 0.305025 4.33324 0.700381C4.02996 1.03894 3.76153 1.59158 3.83151 2.1109C4.36819 2.15592 4.90437 1.85148 5.24274 1.46752Z" fill="black"/>
<path d="M5.72642 2.2123C4.94704 2.16741 4.28437 2.64008 3.91218 2.64008C3.53978 2.64008 2.96983 2.23493 2.35338 2.24585C1.55103 2.25724 0.806539 2.69596 0.399381 3.39373C-0.438074 4.7896 0.178377 6.86018 0.992757 7.99704C1.38824 8.55948 1.86486 9.17878 2.49289 9.15653C3.08626 9.13401 3.31884 8.78496 4.04012 8.78496C4.76086 8.78496 4.97037 9.15653 5.59849 9.14527C6.24987 9.13401 6.6571 8.58255 7.05258 8.01956C7.50627 7.37841 7.692 6.75932 7.70368 6.72533C7.69199 6.71408 6.44763 6.25242 6.43609 4.86815C6.42434 3.70908 7.41306 3.15776 7.45959 3.12356C6.90125 2.32497 6.02887 2.23493 5.72642 2.2123Z" fill="black"/>
<path d="M12.5127 0.643684C14.2066 0.643684 15.3862 1.77291 15.3862 3.41698C15.3862 5.06692 14.1824 6.20201 12.4702 6.20201H10.5946V9.08647H9.23954V0.643682L12.5127 0.643684ZM10.5946 5.10201H12.1495C13.3293 5.10201 14.0008 4.48775 14.0008 3.42285C14.0008 2.35806 13.3293 1.74955 12.1556 1.74955H10.5946V5.10201Z" fill="black"/>
<path d="M15.7403 7.33709C15.7403 6.26045 16.5933 5.59935 18.1059 5.51742L19.8482 5.41799V4.94411C19.8482 4.25954 19.3702 3.84999 18.5718 3.84999C17.8154 3.84999 17.3434 4.20097 17.2286 4.75102H15.9944C16.067 3.63929 17.047 2.82018 18.6201 2.82018C20.1628 2.82018 21.1489 3.61006 21.1489 4.84458V9.08645H19.8965V8.07426H19.8664C19.4974 8.75883 18.6927 9.19174 17.8578 9.19174C16.6115 9.19174 15.7403 8.44284 15.7403 7.33709ZM19.8482 6.78128V6.29567L18.2812 6.38922C17.5007 6.44193 17.0592 6.77541 17.0592 7.30199C17.0592 7.8402 17.519 8.19129 18.2208 8.19129C19.1343 8.19129 19.8482 7.58277 19.8482 6.78128Z" fill="black"/>
<path d="M22.3313 11.3508V10.3268C22.4279 10.3502 22.6457 10.3502 22.7547 10.3502C23.3597 10.3502 23.6864 10.1045 23.886 9.47264C23.886 9.4609 24.001 9.09819 24.001 9.09232L21.7021 2.93135H23.1176L24.7271 7.93973H24.7511L26.3606 2.93135H27.74L25.3561 9.4082C24.8118 10.9003 24.1826 11.38 22.8637 11.38C22.7547 11.38 22.4279 11.3683 22.3313 11.3508Z" fill="black"/>
</svg>
