<svg width="43" height="40" viewBox="0 0 43 40" fill="none" xmlns="http://www.w3.org/2000/svg">
<path d="M34.2453 25.253H32.4944V23.4097C32.4944 22.3917 31.7104 21.5664 30.7434 21.5664C29.7764 21.5664 28.9925 22.3917 28.9925 23.4097V25.253H27.2415C26.2746 25.253 25.4906 26.0783 25.4906 27.0963C25.4906 28.1143 26.2746 28.9397 27.2415 28.9397H28.9925V30.783C28.9925 31.801 29.7764 32.6263 30.7434 32.6263C31.7104 32.6263 32.4944 31.801 32.4944 30.783V28.9397H34.2453C35.2123 28.9397 35.9963 28.1143 35.9963 27.0963C35.9963 26.0783 35.2123 25.253 34.2453 25.253Z" fill="#FF0000"/>
<path d="M30.7433 14.1934C26.7179 14.1934 23.1396 16.2472 20.9039 19.4115C20.0105 19.2137 19.085 19.1089 18.1366 19.1089C17.1277 19.1089 16.1447 19.2274 15.199 19.4506C10.7492 20.5004 7.12732 23.8827 5.55648 28.3098C5.01147 29.8459 4.71265 31.5074 4.71265 33.2409C4.71265 34.2589 5.4966 35.0842 6.46359 35.0842H21.1244C23.3709 38.0763 26.8476 39.9997 30.7433 39.9997C37.5018 39.9997 43 34.2115 43 27.0966C43 19.9816 37.5018 14.1934 30.7433 14.1934ZM30.7433 36.3131C29.1568 36.3131 27.6688 35.8643 26.3842 35.0842C23.7601 33.4908 21.9886 30.5084 21.9886 27.0966C21.9886 24.6376 22.9099 22.4024 24.4059 20.7479C26.0016 18.9834 28.2516 17.88 30.7433 17.88C35.5707 17.88 39.4981 22.0145 39.4981 27.0966C39.4981 32.1786 35.5707 36.3131 30.7433 36.3131Z" fill="#FF0000"/>
<path d="M3.80798 7.71158C3.80798 10.6198 5.95196 13.0091 8.66323 13.224C7.80154 11.5893 7.30987 9.70986 7.30987 7.71158C7.30987 5.71331 7.80154 3.83375 8.66323 2.19922C5.95196 2.4139 3.80798 4.80333 3.80798 7.71158Z" fill="#FF0000"/>
<path d="M10.9129 17.1291C10.3094 16.9968 9.68937 16.9277 9.06079 16.9277C4.06464 16.9277 0 21.2069 0 26.4666C0 27.4846 0.783956 28.3099 1.75094 28.3099H1.87059C3.22489 23.3664 6.5623 19.2996 10.9129 17.1291Z" fill="#FF0000"/>
<path d="M12.165 3.25406C11.3142 4.51366 10.8116 6.05147 10.8116 7.71132C10.8116 9.37116 11.3142 10.909 12.165 12.1686C13.4937 14.1355 15.6745 15.4224 18.1365 15.4224C22.1755 15.4224 25.4613 11.9632 25.4613 7.71119C25.4613 3.45916 22.1755 0 18.1365 0C15.6744 0.000245775 13.4937 1.28712 12.165 3.25406Z" fill="#FF0000"/>
</svg>
