<svg width="36" height="36" viewBox="0 0 36 36" fill="none" xmlns="http://www.w3.org/2000/svg">
<path d="M0 18C0 8.05888 8.05888 0 18 0C27.9411 0 36 8.05888 36 18C36 27.9411 27.9411 36 18 36C8.05888 36 0 27.9411 0 18Z" fill="#F6339A" fill-opacity="0.2"/>
<g clip-path="url(#clip0_1_791)">
<path d="M10.7273 15.4658C10.7273 14.6565 10.9728 13.8663 11.4314 13.1994C11.89 12.5326 12.54 12.0205 13.2957 11.7309C14.0514 11.4412 14.8772 11.3876 15.664 11.5772C16.4508 11.7667 17.1616 12.1904 17.7026 12.7924C17.7407 12.8331 17.7867 12.8656 17.8379 12.8878C17.889 12.91 17.9442 12.9215 18 12.9215C18.0558 12.9215 18.111 12.91 18.1621 12.8878C18.2133 12.8656 18.2594 12.8331 18.2975 12.7924C18.8367 12.1865 19.5477 11.7592 20.3357 11.5674C21.1238 11.3755 21.9517 11.4283 22.709 11.7186C23.4664 12.0088 24.1174 12.5229 24.5754 13.1923C25.0333 13.8617 25.2766 14.6548 25.2727 15.4658C25.2727 17.1313 24.1818 18.375 23.0909 19.4659L19.0968 23.3299C18.9613 23.4855 18.7941 23.6105 18.6066 23.6966C18.4191 23.7827 18.2153 23.8279 18.009 23.8292C17.8026 23.8305 17.5983 23.7879 17.4097 23.7042C17.2211 23.6205 17.0524 23.4976 16.9149 23.3437L12.9091 19.4659C11.8182 18.375 10.7273 17.1386 10.7273 15.4658Z" fill="#F6339A" stroke="#F6339A" stroke-width="1.45455" stroke-linecap="round" stroke-linejoin="round"/>
</g>
<defs>
<clipPath id="clip0_1_791">
<rect width="16" height="18" fill="white" transform="translate(10 9)"/>
</clipPath>
</defs>
</svg>
