<svg width="46" height="46" viewBox="0 0 46 46" fill="none" xmlns="http://www.w3.org/2000/svg">
<path d="M44.0833 42.167C44.0818 42.6749 43.8794 43.1615 43.5203 43.5206C43.1612 43.8797 42.6745 44.0821 42.1667 44.0837H2.55555C2.38626 44.0832 2.22405 44.0157 2.10434 43.896C1.98464 43.7763 1.91716 43.6141 1.91666 43.4448V3.83366C1.91666 3.32533 2.11859 2.83782 2.47804 2.47837C2.83748 2.11893 3.32499 1.91699 3.83332 1.91699C4.34166 1.91699 4.82917 2.11893 5.18861 2.47837C5.54806 2.83782 5.74999 3.32533 5.74999 3.83366V40.2503H42.1667C42.6745 40.2518 43.1612 40.4543 43.5203 40.8134C43.8794 41.1725 44.0818 41.6591 44.0833 42.167Z" fill="#1ED760"/>
<path d="M27.4722 29.3896H23.6389C23.286 29.3896 23 29.6757 23 30.0285V38.3341C23 38.6869 23.286 38.973 23.6389 38.973H27.4722C27.8251 38.973 28.1111 38.6869 28.1111 38.3341V30.0285C28.1111 29.6757 27.8251 29.3896 27.4722 29.3896Z" fill="#1ED760"/>
<path d="M17.25 31.9443H13.4167C13.0638 31.9443 12.7778 32.2304 12.7778 32.5832V38.3332C12.7778 38.6861 13.0638 38.9721 13.4167 38.9721H17.25C17.6028 38.9721 17.8889 38.6861 17.8889 38.3332V32.5832C17.8889 32.2304 17.6028 31.9443 17.25 31.9443Z" fill="#1ED760"/>
<path d="M37.6944 26.1943H33.8611C33.5082 26.1943 33.2222 26.4804 33.2222 26.8332V38.3332C33.2222 38.6861 33.5082 38.9721 33.8611 38.9721H37.6944C38.0473 38.9721 38.3333 38.6861 38.3333 38.3332V26.8332C38.3333 26.4804 38.0473 26.1943 37.6944 26.1943Z" fill="#1ED760"/>
<path d="M38.1161 14.535C38.0586 14.5925 37.6433 14.9567 36.9597 15.4742C34.9919 16.9564 30.8072 19.6781 26.4947 19.7995C27.9667 19.7234 29.3533 19.0851 30.3682 18.0163C31.3832 16.9475 31.9491 15.5298 31.9491 14.0559C31.9491 12.5819 31.3832 11.1643 30.3682 10.0955C29.3533 9.02667 27.9667 8.38835 26.4947 8.31227C30.8072 8.43366 34.9919 11.1553 36.9597 12.6375C37.6433 13.155 38.0586 13.5192 38.1161 13.5767C38.1849 13.636 38.24 13.7096 38.2775 13.7924C38.315 13.8751 38.334 13.965 38.3333 14.0559C38.3333 10.8364 37.0544 7.74887 34.7779 5.47239C32.5014 3.19591 29.4139 1.91699 26.1944 1.91699C22.975 1.91699 19.8874 3.19591 17.6109 5.47239C15.3345 7.74887 14.0555 10.8364 14.0555 14.0559C14.0548 13.965 14.0739 13.8751 14.1114 13.7924C14.1489 13.7096 14.204 13.636 14.2728 13.5767C14.3303 13.5192 14.7455 13.155 15.4291 12.6375C17.3969 11.1553 21.5816 8.43366 25.8941 8.31227C24.4222 8.38835 23.0356 9.02667 22.0206 10.0955C21.0056 11.1643 20.4397 12.5819 20.4397 14.0559C20.4397 15.5298 21.0056 16.9475 22.0206 18.0163C23.0356 19.0851 24.4222 19.7234 25.8941 19.7995C21.5816 19.6781 17.3969 16.9564 15.4291 15.4742C14.7455 14.9567 14.3303 14.5925 14.2728 14.535C14.204 14.4757 14.1489 14.4021 14.1114 14.3194C14.0739 14.2366 14.0548 14.1467 14.0555 14.0559C14.0537 17.0534 15.1647 19.9448 17.1733 22.1698L15.9083 23.4348C15.4423 23.1688 14.9019 23.0629 14.37 23.1333C13.8381 23.2037 13.3438 23.4465 12.963 23.8245L8.49081 28.2967C8.04358 28.7584 7.79577 29.3773 7.80086 30.0201C7.80595 30.6628 8.06354 31.2778 8.51804 31.7323C8.97253 32.1868 9.5875 32.4444 10.2302 32.4494C10.873 32.4545 11.4919 32.2067 11.9536 31.7595L16.4258 27.2873C16.8038 26.9065 17.0466 26.4123 17.117 25.8803C17.1874 25.3484 17.0815 24.808 16.8155 24.342L18.0805 23.077C19.8238 24.6474 21.9851 25.6786 24.3025 26.0457C26.6199 26.4128 28.9941 26.1001 31.1374 25.1454C33.2807 24.1907 35.1012 22.635 36.3784 20.6668C37.6556 18.6986 38.3346 16.4022 38.3333 14.0559C38.334 14.1467 38.315 14.2366 38.2775 14.3194C38.24 14.4021 38.1849 14.4757 38.1161 14.535ZM25.5555 4.47255C25.556 4.30326 25.6235 4.14105 25.7432 4.02134C25.8629 3.90164 26.0251 3.83416 26.1944 3.83366C28.7668 3.8343 31.2435 4.80901 33.1264 6.56171C33.1882 6.61826 33.2382 6.68645 33.2736 6.76238C33.309 6.83831 33.3291 6.92047 33.3326 7.00417C33.3362 7.08787 33.3232 7.17144 33.2944 7.2501C33.2655 7.32876 33.2215 7.40096 33.1647 7.46255C33.1039 7.52687 33.0306 7.57816 32.9493 7.61331C32.868 7.64845 32.7805 7.66672 32.6919 7.66699C32.5324 7.66668 32.3791 7.6049 32.2639 7.49449C30.6123 5.96527 28.4452 5.11441 26.1944 5.11144C26.0251 5.11093 25.8629 5.04346 25.7432 4.92375C25.6235 4.80405 25.556 4.64184 25.5555 4.47255ZM21.7222 14.0559C21.7222 13.1714 21.9845 12.3067 22.4759 11.5712C22.9673 10.8358 23.6658 10.2626 24.483 9.92409C25.3002 9.58559 26.1994 9.49703 27.0669 9.66959C27.9344 9.84215 28.7313 10.2681 29.3568 10.8935C29.9822 11.519 30.4082 12.3159 30.5807 13.1834C30.7533 14.0509 30.6647 14.9501 30.3262 15.7673C29.9877 16.5845 29.4145 17.283 28.6791 17.7744C27.9436 18.2658 27.0789 18.5281 26.1944 18.5281C25.607 18.5285 25.0253 18.4131 24.4825 18.1885C23.9397 17.9639 23.4465 17.6345 23.0311 17.2192C22.6158 16.8038 22.2864 16.3106 22.0618 15.7678C21.8372 15.225 21.7218 14.6433 21.7222 14.0559Z" fill="#1ED760"/>
</svg>
