<svg width="42" height="40" viewBox="0 0 42 40" fill="none" xmlns="http://www.w3.org/2000/svg">
<path d="M20.0517 1.58731C20.1394 1.41091 20.2748 1.26241 20.4426 1.15859C20.6104 1.05477 20.8041 0.999756 21.0016 0.999756C21.1992 0.999756 21.3928 1.05477 21.5607 1.15859C21.7285 1.26241 21.8639 1.41091 21.9516 1.58731L26.5711 10.91C26.8755 11.5236 27.3247 12.0544 27.8803 12.457C28.4358 12.8596 29.0812 13.1218 29.7609 13.2212L40.0919 14.7275C40.2877 14.7557 40.4716 14.838 40.6229 14.965C40.7741 15.0919 40.8867 15.2586 40.9479 15.446C41.0091 15.6334 41.0164 15.8341 40.969 16.0254C40.9217 16.2168 40.8215 16.3911 40.6799 16.5286L33.2085 23.7771C32.7158 24.2555 32.3472 24.8461 32.1343 25.4979C31.9215 26.1497 31.8708 26.8433 31.9867 27.519L33.7505 37.7601C33.7851 37.955 33.7639 38.1557 33.6895 38.3393C33.6151 38.5228 33.4904 38.6818 33.3296 38.7982C33.1689 38.9145 32.9785 38.9835 32.7803 38.9972C32.5821 39.0109 32.384 38.9689 32.2086 38.8759L22.9735 34.0382C22.365 33.7199 21.6879 33.5536 21.0006 33.5536C20.3133 33.5536 19.6363 33.7199 19.0278 34.0382L9.79465 38.8759C9.61933 38.9683 9.42148 39.0099 9.22361 38.9959C9.02573 38.9819 8.83578 38.9129 8.67535 38.7966C8.51491 38.6804 8.39045 38.5216 8.3161 38.3384C8.24175 38.1551 8.22051 37.9548 8.25479 37.7601L10.0166 27.5209C10.133 26.845 10.0826 26.1509 9.86972 25.4987C9.65685 24.8465 9.28792 24.2556 8.79474 23.7771L1.32342 16.5306C1.18062 16.3932 1.07943 16.2186 1.03137 16.0267C0.983312 15.8348 0.990322 15.6333 1.0516 15.4451C1.11288 15.257 1.22596 15.0898 1.37797 14.9625C1.52997 14.8353 1.71479 14.7532 1.91136 14.7255L12.2404 13.2212C12.9209 13.1226 13.5671 12.8607 14.1234 12.4581C14.6798 12.0554 15.1296 11.5242 15.4341 10.91L20.0517 1.58731Z" stroke="#FDC700" stroke-width="1.99972" stroke-linecap="round" stroke-linejoin="round"/>
</svg>
