<svg width="40" height="38" viewBox="0 0 40 38" fill="none" xmlns="http://www.w3.org/2000/svg">
<path fill-rule="evenodd" clip-rule="evenodd" d="M1.30242 15.6939H10.5398C10.8852 15.6939 11.2165 15.8464 11.4607 16.1178C11.705 16.3893 11.8422 16.7575 11.8422 17.1414V36.5525C11.8422 36.9364 11.705 37.3046 11.4607 37.576C11.2165 37.8475 10.8852 38 10.5398 38H1.30242C0.956993 38 0.625719 37.8475 0.381469 37.576C0.137218 37.3046 0 36.9364 0 36.5525V17.1522C0 16.7683 0.137218 16.4001 0.381469 16.1287C0.625719 15.8572 0.956993 15.7047 1.30242 15.7047V15.6939ZM20.2395 2.28268C20.2914 1.84678 20.4396 1.43194 20.6708 1.07517C20.9021 0.718408 21.2092 0.430818 21.5647 0.238067C22.1376 -0.0347068 22.7785 -0.0744266 23.3751 0.125885C24.0024 0.324587 24.5886 0.657738 25.1008 1.10657C26.0268 1.93576 26.7867 2.9709 27.3318 4.1456C27.8768 5.3203 28.1949 6.60863 28.2657 7.92797C28.3187 8.93491 28.3056 9.94481 28.2266 10.9496C28.1723 11.6589 28.0898 12.4008 27.9791 13.1752H34.5563C35.5877 13.211 36.5994 13.4989 37.5193 14.0184C38.2547 14.4279 38.8827 15.0411 39.3427 15.7988C39.8131 16.6053 40.0411 17.5568 39.9939 18.5165C39.9487 19.388 39.7472 20.2406 39.4013 21.0243C39.636 22.013 39.6958 23.0429 39.5772 24.0569C39.4905 24.8352 39.1718 25.5588 38.672 26.1123C38.7166 27.2717 38.5619 28.4299 38.2161 29.5248C37.8946 30.475 37.3952 31.3384 36.7509 32.058C36.7021 32.6696 36.604 33.2752 36.4579 33.8674C36.2938 34.5679 36.0217 35.2315 35.6536 35.8287C34.5368 37.5802 33.6446 37.5404 32.2315 37.4753C32.0329 37.4753 31.8213 37.4753 31.4957 37.4753H18.6864C17.6923 37.5204 16.7029 37.2995 15.8016 36.8311C14.9053 36.2964 14.1269 35.5474 13.5223 34.6382L13.3498 34.0193V17.4273L14.001 17.2355C15.655 16.7397 16.9542 15.1691 17.9603 13.291C18.9332 11.3919 19.6983 9.37031 20.2395 7.26935V2.47085L20.2591 2.28268H20.2395ZM22.2974 2.00041C22.2082 2.06195 22.1327 2.14495 22.0764 2.24329C22.02 2.34163 21.9843 2.45279 21.9718 2.56856V7.40686L21.9327 7.68551C21.3483 9.98835 20.5163 12.2045 19.4548 14.2862C18.3641 16.3199 16.9314 18.0642 15.0983 18.8711V33.6828C15.4989 34.2663 16.0046 34.7507 16.583 35.105C17.2435 35.4325 17.9641 35.5825 18.6864 35.5429H31.4957C31.7236 35.5429 32.0199 35.5429 32.2999 35.5718C33.1367 35.608 33.6674 35.6333 34.234 34.7431C34.4864 34.3298 34.6746 33.8723 34.7908 33.3897C34.9317 32.7978 35.0179 32.1916 35.048 31.5803L35.3183 30.9398C35.8833 30.3672 36.3184 29.6542 36.5881 28.859C36.8914 27.8496 37.0023 26.7811 36.9137 25.7215L36.8811 25.1425L37.324 24.8385C37.4782 24.7111 37.6058 24.5481 37.6979 24.3607C37.7901 24.1733 37.8447 23.9659 37.858 23.7529C37.9451 22.8862 37.8697 22.0089 37.6366 21.1763L37.7049 20.4743C38.0241 19.8573 38.2144 19.1684 38.2617 18.4586C38.2895 17.8987 38.1561 17.3435 37.8808 16.8736C37.5832 16.3935 37.1811 16.005 36.7118 15.7445C36.0295 15.3589 35.2791 15.1452 34.514 15.1185H25.8888L26.0841 13.9677C26.2657 12.9157 26.3983 11.854 26.4814 10.7868C26.5562 9.87849 26.5703 8.96526 26.5237 8.05462C26.4739 7.0075 26.2274 5.98355 25.8001 5.04868C25.3728 4.1138 24.7741 3.2887 24.0426 2.62646C23.7131 2.33377 23.3362 2.11389 22.9323 1.9787C22.7216 1.89591 22.4918 1.89591 22.2811 1.9787L22.2974 2.00041ZM7.37167 30.871C7.70203 30.871 8.02498 30.9799 8.29967 31.1839C8.57436 31.3879 8.78845 31.6778 8.91487 32.017C9.0413 32.3562 9.07438 32.7295 9.00992 33.0896C8.94547 33.4497 8.78639 33.7805 8.55279 34.0401C8.31918 34.2998 8.02156 34.4766 7.69754 34.5482C7.37352 34.6198 7.03767 34.5831 6.73246 34.4426C6.42724 34.3021 6.16637 34.0641 5.98283 33.7588C5.79929 33.4535 5.70132 33.0946 5.70132 32.7274C5.70132 32.2351 5.87731 31.7629 6.19056 31.4147C6.50381 31.0666 6.92867 30.871 7.37167 30.871Z" fill="#C27AFF"/>
</svg>
