<svg width="42" height="40" viewBox="0 0 42 40" fill="none" xmlns="http://www.w3.org/2000/svg">
<path d="M0.999863 13.3185C0.999904 10.8334 1.67505 8.40674 2.93612 6.35906C4.1972 4.31138 5.98488 2.73901 8.06306 1.84961C10.1412 0.960214 12.4121 0.795635 14.5758 1.37761C16.7395 1.95958 18.6943 3.26074 20.1818 5.10921C20.2866 5.2343 20.4132 5.33403 20.554 5.40221C20.6947 5.47039 20.8464 5.50557 20.9998 5.50557C21.1532 5.50557 21.3049 5.47039 21.4456 5.40221C21.5864 5.33403 21.713 5.2343 21.8178 5.10921C23.3007 3.24872 25.2558 1.93664 27.423 1.34759C29.5903 0.758544 31.8667 0.920477 33.9495 1.81183C36.0323 2.70319 37.8225 4.2817 39.082 6.33726C40.3414 8.39282 41.0104 10.8279 40.9997 13.3185C40.9997 18.4326 37.9997 22.2514 34.9998 25.6012L24.0158 37.4662C23.6431 37.9442 23.1837 38.3281 22.6679 38.5925C22.1521 38.8568 21.5919 38.9957 21.0244 38.9997C20.4569 39.0037 19.8951 38.8728 19.3764 38.6157C18.8577 38.3587 18.3939 37.9813 18.0158 37.5087L6.99984 25.6012C3.99985 22.2514 0.999863 18.4549 0.999863 13.3185Z" stroke="#FB64B6" stroke-width="1.99972" stroke-linecap="round" stroke-linejoin="round"/>
</svg>
