<svg width="32" height="42" viewBox="0 0 32 42" fill="none" xmlns="http://www.w3.org/2000/svg">
<path d="M2.67156 24.999C2.35629 25.0002 2.04719 24.8942 1.78016 24.693C1.51313 24.4918 1.29914 24.2039 1.16305 23.8626C1.02696 23.5213 0.974362 23.1406 1.01136 22.7649C1.04836 22.3891 1.17343 22.0336 1.37206 21.7398L17.8658 1.34512C17.9895 1.17373 18.1581 1.05791 18.3439 1.01667C18.5297 0.975434 18.7217 1.01123 18.8883 1.11819C19.0549 1.22514 19.1863 1.3969 19.2608 1.60527C19.3354 1.81364 19.3487 2.04623 19.2986 2.26488L16.0998 14.3017C16.0055 14.6047 15.9738 14.9306 16.0075 15.2515C16.0412 15.5724 16.1392 15.8787 16.2932 16.1441C16.4472 16.4095 16.6526 16.6262 16.8916 16.7754C17.1307 16.9247 17.3964 17.0021 17.6659 17.001H29.3281C29.6434 16.9998 29.9525 17.1058 30.2195 17.307C30.4866 17.5082 30.7006 17.7961 30.8366 18.1374C30.9727 18.4787 31.0253 18.8594 30.9883 19.2351C30.9513 19.6109 30.8263 19.9664 30.6276 20.2602L14.1339 40.6549C14.0102 40.8263 13.8416 40.9421 13.6558 40.9833C13.47 41.0246 13.278 40.9888 13.1114 40.8818C12.9448 40.7749 12.8134 40.6031 12.7389 40.3947C12.6643 40.1864 12.651 39.9538 12.7011 39.7351L15.8999 27.6983C15.9942 27.3953 16.0259 27.0694 15.9922 26.7485C15.9585 26.4276 15.8605 26.1213 15.7065 25.8559C15.5525 25.5905 15.3471 25.3738 15.1081 25.2246C14.869 25.0753 14.6033 24.9979 14.3338 24.999H2.67156Z" stroke="#51A2FF" stroke-width="1.99972" stroke-linecap="round" stroke-linejoin="round"/>
</svg>
