<svg width="50" height="54" viewBox="0 0 50 54" fill="none" xmlns="http://www.w3.org/2000/svg">
<path d="M24.0875 7.34851C24.1774 7.17213 24.3095 7.02504 24.47 6.9226C24.6305 6.82015 24.8135 6.76611 25 6.76611C25.1864 6.76611 25.3694 6.82015 25.5299 6.9226C25.6904 7.02504 25.8225 7.17213 25.9125 7.34851L32.0625 19.9575C32.2091 20.2495 32.4138 20.5028 32.6619 20.6992C32.9099 20.8956 33.1951 21.0302 33.497 21.0934C33.799 21.1567 34.1101 21.1469 34.4082 21.0649C34.7062 20.9829 34.9837 20.8306 35.2208 20.619L44.1312 12.375C44.3023 12.2248 44.513 12.137 44.7332 12.1244C44.9534 12.1117 45.1716 12.1749 45.3564 12.3047C45.5412 12.4345 45.6832 12.6243 45.7617 12.8468C45.8403 13.0693 45.8515 13.313 45.7937 13.5428L39.8895 36.5963C39.769 37.068 39.5094 37.4845 39.15 37.7825C38.7906 38.0805 38.351 38.2439 37.8979 38.2478H12.1041C11.6507 38.2443 11.2106 38.0812 10.8508 37.7832C10.4909 37.4851 10.231 37.0684 10.1104 36.5963L4.20829 13.545C4.15048 13.3152 4.16167 13.0715 4.24026 12.8491C4.31884 12.6266 4.46076 12.4368 4.64559 12.3069C4.83042 12.1771 5.04862 12.114 5.2688 12.1266C5.48897 12.1393 5.69975 12.227 5.8708 12.3773L14.7791 20.6213C15.0162 20.8329 15.2937 20.9851 15.5918 21.0672C15.8898 21.1492 16.2009 21.1589 16.5029 21.0957C16.8048 21.0325 17.09 20.8978 17.3381 20.7014C17.5861 20.505 17.7908 20.2517 17.9375 19.9598L24.0875 7.34851Z" stroke="#FF0000" stroke-width="3" stroke-linecap="round" stroke-linejoin="round"/>
<path d="M10.4167 47.25H39.5834" stroke="#FF0000" stroke-width="3" stroke-linecap="round" stroke-linejoin="round"/>
</svg>
