<svg width="46" height="46" viewBox="0 0 46 46" fill="none" xmlns="http://www.w3.org/2000/svg">
<path d="M21.0395 5.55078C21.1252 5.11504 21.3686 4.72147 21.7275 4.43825C22.0865 4.15503 22.5384 4 23.005 4C23.4717 4 23.9235 4.15503 24.2825 4.43825C24.6415 4.72147 24.885 5.11504 24.9707 5.55078L27.0721 16.1085C27.2213 16.8591 27.6052 17.5495 28.1739 18.0896C28.7426 18.6298 29.4691 18.9946 30.2592 19.1364L41.3727 21.1328C41.8314 21.2142 42.2456 21.4454 42.5438 21.7864C42.8418 22.1274 43.005 22.5567 43.005 23C43.005 23.4434 42.8418 23.8726 42.5438 24.2136C42.2456 24.5546 41.8314 24.786 41.3727 24.8674L30.2592 26.8637C29.4691 27.0055 28.7426 27.3702 28.1739 27.9104C27.6052 28.4507 27.2213 29.1409 27.0721 29.8915L24.9707 40.4493C24.885 40.8851 24.6415 41.2786 24.2825 41.5619C23.9235 41.845 23.4717 42 23.005 42C22.5384 42 22.0865 41.845 21.7275 41.5619C21.3686 41.2786 21.1252 40.8851 21.0395 40.4493L18.938 29.8915C18.7888 29.1409 18.4048 28.4507 17.8362 27.9104C17.2676 27.3702 16.5409 27.0055 15.7508 26.8637L4.63741 24.8674C4.17873 24.786 3.76445 24.5546 3.46632 24.2136C3.16819 23.8726 3.005 23.4434 3.005 23C3.005 22.5567 3.16819 22.1274 3.46632 21.7864C3.76445 21.4454 4.17873 21.2142 4.63741 21.1328L15.7508 19.1364C16.5409 18.9946 17.2676 18.6298 17.8362 18.0896C18.4048 17.5495 18.7888 16.8591 18.938 16.1085L21.0395 5.55078Z" stroke="#00C950" stroke-width="1.66667" stroke-linecap="round" stroke-linejoin="round"/>
<path d="M39.0013 4.00439V11.6026" stroke="#00C950" stroke-width="1.66667" stroke-linecap="round" stroke-linejoin="round"/>
<path d="M43.0002 7.80371H35.0022" stroke="#00C950" stroke-width="1.66667" stroke-linecap="round" stroke-linejoin="round"/>
<path d="M7.00886 41.9958C9.21749 41.9958 11.0079 40.2949 11.0079 38.1969C11.0079 36.0986 9.21749 34.3977 7.00886 34.3977C4.80026 34.3977 3.00983 36.0986 3.00983 38.1969C3.00983 40.2949 4.80026 41.9958 7.00886 41.9958Z" stroke="#00C950" stroke-width="1.66667" stroke-linecap="round" stroke-linejoin="round"/>
</svg>
