<svg width="24" height="15" viewBox="0 0 24 15" fill="none" xmlns="http://www.w3.org/2000/svg">
<path d="M15.245 1.60351H8.75531V13.3965H15.245V1.60351Z" fill="#FF5F00"/>
<path d="M9.1674 7.5C9.16638 6.36425 9.42089 5.24315 9.91167 4.22157C10.4025 3.19999 11.1167 2.30471 12.0002 1.6035C10.9061 0.733844 9.59203 0.193016 8.20831 0.0428346C6.82459 -0.107347 5.427 0.139171 4.17528 0.754225C2.92356 1.36928 1.86822 2.32805 1.12988 3.52094C0.391541 4.71383 0 6.09272 0 7.5C0 8.90728 0.391541 10.2862 1.12988 11.4791C1.86822 12.672 2.92356 13.6307 4.17528 14.2458C5.427 14.8608 6.82459 15.1073 8.20831 14.9572C9.59203 14.807 10.9061 14.2662 12.0002 13.3965C11.1167 12.6953 10.4025 11.8 9.91169 10.7784C9.4209 9.75685 9.16638 8.63575 9.1674 7.5Z" fill="#EB001B"/>
<path d="M24 7.5C24.0001 8.90726 23.6086 10.2861 22.8703 11.479C22.132 12.6719 21.0766 13.6307 19.825 14.2458C18.5733 14.8608 17.1757 15.1073 15.792 14.9572C14.4083 14.807 13.0943 14.2662 12.0002 13.3965C12.8829 12.6946 13.5966 11.7992 14.0873 10.7777C14.578 9.75632 14.833 8.63557 14.833 7.5C14.833 6.36443 14.578 5.24368 14.0873 4.22226C13.5966 3.20084 12.8829 2.30542 12.0002 1.6035C13.0943 0.733843 14.4083 0.193013 15.792 0.0428326C17.1757 -0.107347 18.5733 0.139182 19.825 0.754242C21.0766 1.3693 22.132 2.32807 22.8703 3.52097C23.6086 4.71386 24.0001 6.09274 24 7.5Z" fill="#F79E1B"/>
<path d="M23.2924 12.1474V11.906H23.3887V11.8568H23.1435V11.906H23.2398V12.1474H23.2924ZM23.7684 12.1474V11.8563H23.6933L23.6068 12.0566L23.5203 11.8563H23.4451V12.1474H23.4982V11.9279L23.5793 12.1172H23.6343L23.7154 11.9274V12.1474H23.7684Z" fill="#F79E1B"/>
</svg>
