<svg width="36" height="36" viewBox="0 0 36 36" fill="none" xmlns="http://www.w3.org/2000/svg">
<path d="M0 18C0 8.05888 8.05888 0 18 0C27.9411 0 36 8.05888 36 18C36 27.9411 27.9411 36 18 36C8.05888 36 0 27.9411 0 18Z" fill="#2B7FFF" fill-opacity="0.2"/>
<g clip-path="url(#clip0_1_801)">
<path d="M11.4485 21.1579C11.5555 21.4276 11.5793 21.7232 11.5169 22.0066L10.7423 24.3993C10.7174 24.5206 10.7238 24.6464 10.7611 24.7645C10.7983 24.8827 10.8651 24.9894 10.9552 25.0744C11.0452 25.1595 11.1555 25.2202 11.2756 25.2507C11.3956 25.2812 11.5215 25.2806 11.6413 25.2488L14.1234 24.523C14.3909 24.4699 14.6678 24.4931 14.9227 24.5899C16.4757 25.3151 18.235 25.4686 19.8901 25.0231C21.5452 24.5776 22.9898 23.5619 23.969 22.1552C24.9482 20.7485 25.3991 19.0411 25.2422 17.3342C25.0853 15.6275 24.3305 14.0309 23.1111 12.8264C21.8917 11.6218 20.2861 10.8866 18.5775 10.7505C16.8689 10.6144 15.1672 11.0861 13.7725 12.0825C12.3778 13.0788 11.3798 14.5357 10.9546 16.1961C10.5294 17.8566 10.7044 19.6138 11.4485 21.1579Z" stroke="#51A2FF" stroke-width="1.45455" stroke-linecap="round" stroke-linejoin="round"/>
</g>
<defs>
<clipPath id="clip0_1_801">
<rect width="16" height="18" fill="white" transform="translate(10 9)"/>
</clipPath>
</defs>
</svg>
