<svg width="49" height="54" viewBox="0 0 49 54" fill="none" xmlns="http://www.w3.org/2000/svg">
<path d="M38.8413 26.5706C38.8413 26.5706 37.5125 26.4128 37.2952 25.8086C37.0827 25.2044 37.1371 24.4369 37.1371 24.4369L40.3627 10.5672C40.3627 10.5672 40.5505 8.85252 42.4078 9.42952L44.2849 9.87043L43.3019 13.3977L40.338 23.1304L38.8413 26.5706Z" fill="#757575"/>
<path d="M41.909 27.3982L38.8414 26.5708C38.8414 26.5708 38.293 25.972 38.5697 24.8779L41.8447 10.6653C41.8447 10.6653 42.3288 9.40785 43.3365 9.6528L47.7823 10.6653C47.7823 10.6653 48.9728 11.0844 48.6023 12.4942L45.8904 23.7348L43.4699 27.1804L41.909 27.3982Z" fill="#474B4E"/>
<path d="M37.6064 49.1005L36.6135 48.725C36.6135 48.725 39.0241 39.9611 37.478 34.0007L37.9967 35.4704C37.9967 35.4704 38.6487 36.3849 39.9281 35.5792C41.2075 34.7736 42.2004 31.8614 42.2004 31.8614C42.2004 31.8614 42.9068 30.5169 43.1044 30.3264C43.1044 30.3264 44.2949 28.5954 44.5073 29.8528C44.7197 31.1102 42.9809 33.4727 42.9809 33.4727C42.9809 33.4727 41.7212 37.6695 38.4462 36.6788C38.4462 36.6788 39.1624 40.3694 39.0834 41.0008C39.0044 41.6431 39.7355 48.1262 37.6064 49.1005Z" fill="#4B80B2"/>
<path d="M48.8492 26.587C48.8492 26.587 47.7971 19.1677 42.7882 20.5285C40.4171 21.3069 43.4847 23.5224 44.6702 24.5403C44.6702 24.5403 41.3458 24.3715 41.9138 27.398L42.0324 27.8008L47.5056 26.8864L48.8492 26.587Z" fill="#212630"/>
<path d="M37.6064 49.1007C37.6064 49.1007 41.9337 51.1474 45.9645 45.4374C49.9954 39.7273 48.8493 26.587 48.8493 26.587C48.8493 26.587 44.206 23.1414 40.8815 28.8515C40.3925 31.0342 43.1044 30.3321 43.1044 30.3321C43.1044 30.3321 44.4134 28.9875 44.4233 29.9292C44.4332 30.8709 43.2872 30.8601 41.7855 34.616C41.7855 34.616 41.173 37.0546 38.2684 36.4722C38.2634 36.4722 39.9183 44.1854 37.6064 49.1007Z" fill="#106BB1"/>
<path d="M36.7222 43.2328C36.0652 45.7313 35.181 46.6784 34.1931 46.6077C32.8 51.1365 31.0514 53.9997 31.0514 53.9997H9.99811L13.8561 43.2382C13.8561 43.2382 14.849 39.9994 15.0268 36.4068C15.2046 32.8142 13.8561 28.5738 12.7446 27.643C12.7446 27.643 15.0861 32.2209 13.8561 38.214C12.6261 44.2071 10.0574 40.5655 10.0574 37.6316C10.0574 37.6316 6.75269 46.0198 5.90799 37.3158C5.90799 37.3158 3.37389 42.8626 1.29919 40.0321C2.82558 30.2993 7.69124 25.7106 7.69124 25.7106L9.65233 20.4904C9.65233 20.4904 31.57 21.541 32.2221 21.6934C32.2221 21.6934 32.642 22.2268 33.2496 23.1903C33.6793 23.8762 34.2029 24.7852 34.7315 25.8793C36.6185 29.7986 38.5944 36.102 36.7222 43.2328Z" fill="#4B80B2"/>
<path d="M15.0465 35.7483C15.0465 35.966 15.0416 36.1837 15.0317 36.4015C14.8539 39.9941 13.861 43.2329 13.861 43.2329L13.7474 43.5486L13.614 43.9187L10.003 53.9944H0C0.429759 51.6537 0.691566 49.705 0.849639 48.1156V48.1101L0.854578 48.0775L1.00277 47.0541L1.28928 40.0975C1.29422 40.0703 1.29916 40.0485 1.29916 40.0213C3.37386 42.8518 5.90795 37.3051 5.90795 37.3051C6.1994 40.2771 6.77241 41.2569 7.40964 41.2569C7.42446 41.2569 7.43928 41.2569 7.4541 41.2569H7.45904C7.47386 41.2569 7.48868 41.2515 7.50844 41.2515C7.52325 41.2515 7.53807 41.2461 7.55289 41.2406C7.56277 41.2406 7.57759 41.2352 7.58747 41.2297C7.59241 41.2297 7.60229 41.2243 7.60723 41.2243C7.61217 41.2243 7.61217 41.2243 7.61711 41.2188C7.62699 41.2134 7.63687 41.2134 7.64675 41.2079C7.73072 41.1753 7.81964 41.1317 7.90362 41.0719C7.91844 41.061 7.93325 41.0501 7.94807 41.0446C7.96289 41.0338 7.98265 41.0229 7.99747 41.0065C8.03205 40.9793 8.07157 40.9467 8.10615 40.914C8.11603 40.9031 8.13084 40.8922 8.14566 40.8813C8.16048 40.865 8.18024 40.8487 8.19506 40.8324C8.20988 40.816 8.22964 40.7997 8.24446 40.7834C8.25928 40.7725 8.26916 40.7561 8.28398 40.7453C8.28892 40.7398 8.28892 40.7398 8.29386 40.7344C8.32843 40.7017 8.35807 40.6636 8.39265 40.6255C8.49145 40.5112 8.5853 40.3914 8.67916 40.2554C8.69398 40.2336 8.7088 40.2173 8.72362 40.1955C8.72856 40.19 8.7335 40.1846 8.7335 40.1792C8.75325 40.1519 8.76807 40.1247 8.78783 40.0975C8.84217 40.0159 8.89651 39.9342 8.94591 39.8526C8.9706 39.809 8.9953 39.7709 9.02494 39.7274C9.03976 39.7056 9.04964 39.6838 9.06446 39.6566C9.20771 39.4116 9.34603 39.1612 9.46458 38.9217C9.4794 38.8945 9.49422 38.8673 9.5041 38.8401C9.67699 38.4917 9.82024 38.176 9.91904 37.9528C9.92398 37.9419 9.92892 37.931 9.93386 37.9256C9.94374 37.9038 9.94868 37.8875 9.95856 37.8657C9.9635 37.8548 9.96844 37.8385 9.97338 37.8276C10.0327 37.6915 10.0623 37.6099 10.0623 37.6099C10.0623 37.6262 10.0623 37.6426 10.0623 37.6589C10.0623 37.7133 10.0623 37.7677 10.0672 37.8222C10.0672 37.8494 10.0672 37.8766 10.0722 37.9038C10.0722 37.9147 10.0722 37.931 10.0722 37.9419C10.0722 37.9637 10.0771 37.9855 10.0771 38.0127C10.0771 38.0345 10.0821 38.0508 10.0821 38.0726C10.0821 38.0998 10.087 38.127 10.0919 38.1542C10.0969 38.1814 10.0969 38.2141 10.1018 38.2413C10.1067 38.2685 10.1067 38.2958 10.1117 38.323C10.1166 38.3556 10.1216 38.3828 10.1216 38.4155C10.1314 38.4972 10.1463 38.5734 10.1611 38.655C10.1759 38.7258 10.1907 38.7965 10.2055 38.8673C10.2105 38.8891 10.2154 38.9054 10.2204 38.9272C10.2302 38.9762 10.2451 39.0197 10.2549 39.0687C10.2698 39.1231 10.2846 39.1776 10.2994 39.232C10.3093 39.2592 10.3142 39.2864 10.3241 39.3137C10.3389 39.3681 10.3587 39.4171 10.3735 39.4715C10.3883 39.526 10.4081 39.5749 10.4278 39.6239C10.4377 39.6457 10.4427 39.6729 10.4525 39.6947C10.4624 39.7219 10.4723 39.7491 10.4822 39.7763C10.4921 39.7981 10.5019 39.8253 10.5118 39.8471C10.5513 39.9451 10.5958 40.0376 10.6402 40.1302C10.6501 40.1519 10.66 40.1737 10.6748 40.1955C10.6847 40.2173 10.6995 40.239 10.7094 40.2608C10.7193 40.2826 10.7341 40.3044 10.744 40.3261C10.7687 40.3697 10.7934 40.4132 10.8181 40.4513C10.828 40.4731 10.8428 40.4949 10.8527 40.5112C10.9267 40.631 11.0058 40.7453 11.0848 40.8432C11.0996 40.8596 11.1095 40.8759 11.1243 40.8922C11.2083 40.9902 11.2923 41.0719 11.3812 41.1481C11.396 41.159 11.4108 41.1698 11.4257 41.1807C11.5146 41.2515 11.6084 41.3059 11.7023 41.344C11.7171 41.3495 11.727 41.3549 11.7418 41.3604C11.8653 41.4039 11.9888 41.4202 12.1172 41.4039C12.132 41.4039 12.1419 41.3985 12.1567 41.3985C12.1716 41.3985 12.1814 41.393 12.1963 41.3876C12.2012 41.3876 12.2061 41.3876 12.2061 41.3876C12.216 41.3821 12.2308 41.3821 12.2407 41.3767C12.2555 41.3713 12.2753 41.3658 12.2901 41.3604C12.3049 41.3549 12.3148 41.3495 12.3296 41.344C12.3494 41.3331 12.3692 41.3277 12.3939 41.3168C12.4136 41.3059 12.4334 41.295 12.4581 41.2787C12.4778 41.2678 12.4927 41.2569 12.5124 41.2406C12.5272 41.2297 12.5371 41.2243 12.5519 41.2134L12.5569 41.2079C12.5717 41.1971 12.5865 41.1862 12.6013 41.1698C12.6161 41.159 12.631 41.1481 12.6458 41.1317C12.6754 41.1045 12.7051 41.0773 12.7298 41.0446L12.7347 41.0392C12.7594 41.012 12.7841 40.9848 12.8088 40.9521C12.8533 40.8977 12.9027 40.8324 12.9471 40.767C12.9669 40.7398 12.9866 40.7072 13.0064 40.6745C13.0212 40.6527 13.0311 40.631 13.0459 40.6146C13.0607 40.5928 13.0706 40.5711 13.0854 40.5493C13.12 40.4894 13.1546 40.4241 13.1842 40.3588C13.1892 40.3533 13.1892 40.3425 13.1941 40.337C13.204 40.3098 13.2188 40.288 13.2287 40.2608C13.2386 40.2336 13.2534 40.2064 13.2633 40.1792C13.2731 40.1574 13.283 40.1356 13.2929 40.1084C13.2978 40.0921 13.3077 40.0757 13.3127 40.0594C13.3176 40.0431 13.3275 40.0267 13.3324 40.005C13.3423 39.9832 13.3522 39.956 13.3621 39.9288C13.3867 39.8634 13.4114 39.7981 13.4361 39.7274C13.446 39.6947 13.4608 39.662 13.4707 39.6294C13.4806 39.5913 13.4954 39.5586 13.5053 39.5205C13.5152 39.4878 13.5251 39.4552 13.5349 39.4225C13.5448 39.3844 13.5547 39.3518 13.5695 39.3137C13.6041 39.2048 13.6337 39.085 13.6683 38.9653C13.6881 38.8891 13.7078 38.8129 13.7276 38.7367C13.7474 38.6605 13.7671 38.5788 13.7819 38.5026C13.7918 38.4699 13.7967 38.4318 13.8066 38.3992C13.8214 38.3284 13.8363 38.2576 13.8511 38.1814C15.0811 32.1883 12.7396 27.6104 12.7396 27.6104C12.7495 27.6213 12.7643 27.6322 12.7742 27.6431C12.7841 27.654 12.7989 27.6649 12.8088 27.6758C12.8335 27.6975 12.8631 27.7248 12.8878 27.7574C12.9027 27.7737 12.9224 27.7955 12.9372 27.8118C12.9422 27.8173 12.9471 27.8227 12.9471 27.8227C12.9718 27.85 12.9916 27.8772 13.0163 27.9098C13.041 27.9425 13.0657 27.9751 13.0904 28.0078C13.1002 28.0241 13.1101 28.0405 13.1249 28.0568C13.1447 28.084 13.1645 28.1167 13.1892 28.1493C13.204 28.1766 13.2237 28.1983 13.2386 28.2255C13.2534 28.2528 13.2731 28.28 13.288 28.3072C13.3028 28.3344 13.3225 28.3616 13.3374 28.3943C13.3522 28.4215 13.3719 28.4542 13.3867 28.4814C13.4016 28.514 13.4213 28.5413 13.4361 28.5739C13.451 28.6066 13.4707 28.6392 13.4855 28.6719C13.5004 28.7046 13.5201 28.7372 13.5349 28.7699C13.5695 28.8352 13.5992 28.906 13.6337 28.9767C13.6486 29.0094 13.6683 29.0475 13.6831 29.0856C13.698 29.1183 13.7128 29.1509 13.7276 29.189C13.7523 29.2435 13.772 29.2979 13.7967 29.3469C13.8214 29.4068 13.8511 29.4721 13.8758 29.5374C13.8758 29.5374 13.8758 29.5374 13.8758 29.5428C13.9054 29.6136 13.9301 29.6898 13.9598 29.7606C14.0388 29.9783 14.1178 30.2015 14.1919 30.441C14.2067 30.4845 14.2216 30.5335 14.2364 30.5771C14.2512 30.6261 14.266 30.6696 14.2808 30.7186C14.3401 30.9146 14.3945 31.116 14.4488 31.3174C14.4735 31.4045 14.4933 31.497 14.513 31.5841C14.5278 31.6385 14.5377 31.693 14.5525 31.7528C14.5723 31.8454 14.597 31.9434 14.6167 32.0413C14.6365 32.123 14.6513 32.2101 14.6711 32.2917C14.7304 32.5802 14.7798 32.8742 14.8292 33.1681C14.8341 33.2117 14.844 33.2552 14.8489 33.2988C14.9033 33.6635 14.9477 34.0336 14.9774 34.4038C14.9823 34.4419 14.9823 34.4854 14.9872 34.529C14.9872 34.5507 14.9922 34.5779 14.9922 34.5997C14.9971 34.6487 14.9971 34.6922 15.0021 34.7412C15.007 34.8283 15.0119 34.9154 15.0169 34.9971C15.0169 35.0406 15.0218 35.0787 15.0218 35.1223C15.0267 35.2311 15.0317 35.3346 15.0317 35.4434C15.0416 35.5577 15.0465 35.6557 15.0465 35.7483Z" fill="#4B80B2"/>
<path d="M33.2445 23.1851C32.6419 22.2162 32.217 21.6882 32.217 21.6882C32.5035 21.7535 32.8938 22.4394 33.2445 23.1851Z" fill="#4B80B2"/>
<path d="M36.7221 43.233L35.4971 54H31.0513C31.0513 54 32.7999 51.1368 34.193 46.6079C35.0031 43.9788 35.6897 40.7944 35.8527 37.278L36.7221 43.233Z" fill="#4B80B2"/>
<path d="M35.7046 53.9996H31.2341C31.2341 53.9996 32.9926 51.1201 34.3955 46.564C35.2106 43.9186 35.9021 40.7124 36.0652 37.1797C36.238 33.4292 35.8132 29.3031 34.2967 25.0845C34.2967 25.0845 34.5437 25.2914 34.934 25.7105C37.1766 28.1219 44.1219 37.4736 35.7046 53.9996Z" fill="#4B80B2"/>
<path d="M15.1206 36.2981C14.9428 39.9125 13.945 43.1676 13.945 43.1676C13.945 43.1676 13.945 43.1676 13.945 43.173L13.619 43.9188L13.4609 44.278L11.3565 48.0612L2.0945 50.8482L1.00775 47.0542L1.29426 40.0976V40.054L1.2992 39.9234C1.30414 39.9288 1.30908 39.9342 1.30908 39.9397L1.31402 39.9451C3.3986 42.7757 5.94257 37.2071 5.94257 37.2071C6.46125 42.5416 7.89872 41.4965 8.94101 39.8635C9.4745 39.0252 9.9092 38.04 10.0574 37.6753C10.0969 37.5827 10.1167 37.5283 10.1167 37.5283C10.1167 39.6839 11.5047 42.2259 12.7298 41.0719C13.1793 40.6473 13.6091 39.7274 13.94 38.1162C14.9478 33.2063 13.5696 29.2381 13.0262 27.9371C12.9027 27.6431 12.8237 27.4853 12.8237 27.4853C13.94 28.4161 15.2935 32.6837 15.1206 36.2981Z" fill="#386797"/>
<path d="M13.94 43.1729L10.0623 53.9943H0C0.429759 51.6537 0.691566 49.7049 0.849639 48.1155V48.11L0.854578 48.0774L1.00277 47.054C2.73663 48.9646 5.11759 43.6193 5.11759 43.6193C5.82398 51.9803 9.5288 43.6193 9.5288 43.6193C9.83506 50.4235 12.9274 45.0835 13.7424 43.5485C13.8461 43.3525 13.9104 43.2219 13.9301 43.1838C13.9351 43.1784 13.94 43.1784 13.94 43.1729Z" fill="#015998"/>
<path d="M35.7145 29.8367C35.6454 29.804 35.5762 29.7713 35.5071 29.7441C33.1113 28.6446 32.2271 27.5886 31.9603 27.2021C31.8912 27.0987 31.8615 27.0442 31.8615 27.0442C31.8516 27.0551 31.8467 27.066 31.8418 27.0769C31.4021 27.8498 31.8615 30.5497 31.8615 30.5497C29.362 30.8274 26.66 25.9664 26.66 25.9664C24.7087 30.9689 20.1592 30.5389 20.1592 30.5389C20.8607 26.6632 19.8085 25.6453 19.8085 25.6453C17.1805 29.5699 13.0065 28.9276 13.0065 28.9276C14.355 27.311 14.108 24.1375 14.108 24.1375C12.1716 26.3801 7.38007 28.0948 7.30597 28.1166C7.38007 28.0894 7.4591 27.7573 7.53814 27.2728C7.76043 25.8739 7.97284 23.2012 8.02717 22.8964C8.64958 19.1786 9.45971 15.4662 10.6749 11.9171C11.2627 10.1916 11.9345 8.41162 12.8385 6.8276C12.9077 6.70785 12.9768 6.58265 13.0509 6.4629C20.5495 -6.08404 31.4367 3.49082 31.6442 3.55614C32.0295 3.92085 32.395 4.30733 32.7309 4.71014C33.8572 6.0492 34.6278 7.53524 34.4154 8.85797V8.86342C33.951 11.743 33.7781 14.4265 33.7831 16.8488C33.7831 16.9359 33.7831 17.0176 33.7831 17.1047C33.7831 17.268 33.788 17.4313 33.788 17.5946C33.9165 25.0465 35.7145 29.8367 35.7145 29.8367Z" fill="#F4E1EF"/>
<path d="M23.5577 13.1909C23.5577 13.1909 25.7905 13.7135 27.6824 11.498C28.453 10.491 29.1446 9.13015 29.1446 9.13015C29.1446 9.13015 30.7945 6.7895 33.8571 8.70012C36.9198 10.6107 36.3962 17.8177 34.7364 19.7011L34.5635 19.2983L34.5388 19.7011C34.5388 19.7011 34.0152 16.0051 33.0519 17.4422C33.0519 17.4422 30.0486 19.4181 26.5364 17.9266C23.0193 16.4297 22.7031 13.4685 23.5577 13.1909Z" fill="#FFB83C"/>
<path d="M34.203 18.155C34.203 18.155 32.3555 16.2389 29.6189 16.8486C26.8773 17.4528 24.2049 16.0266 24.1456 14.1813C24.1456 13.5227 25.2077 14.7474 25.5633 15.0686C25.919 15.3897 26.7341 16.1573 30.2759 15.9014C33.8078 15.651 34.203 18.155 34.203 18.155Z" fill="#1B222D"/>
<path d="M25.578 9.27699C25.3805 10.6759 24.3283 11.2965 23.37 11.2965C22.4117 11.2965 21.3595 10.6705 21.1619 9.27699C21.1323 9.08103 21.1718 8.87962 21.2656 8.76531C21.3249 8.6891 21.399 8.651 21.478 8.651H21.483C21.6658 8.651 21.8041 8.84696 21.8485 9.15179C21.9819 10.1044 22.708 10.5344 23.365 10.5344C24.022 10.5344 24.7482 10.1098 24.8815 9.15723C24.926 8.8524 25.0693 8.66189 25.252 8.65644C25.336 8.65644 25.415 8.69455 25.4694 8.77076C25.5682 8.87962 25.6077 9.08103 25.578 9.27699Z" fill="#1B222D"/>
<path d="M31.9208 11.9173C32.2318 11.9173 32.4839 11.6395 32.4839 11.2968C32.4839 10.954 32.2318 10.6762 31.9208 10.6762C31.6098 10.6762 31.3577 10.954 31.3577 11.2968C31.3577 11.6395 31.6098 11.9173 31.9208 11.9173Z" fill="#1B222D"/>
</svg>
