<svg width="30" height="30" viewBox="0 0 30 30" fill="none" xmlns="http://www.w3.org/2000/svg">
<circle cx="15" cy="15" r="15" fill="white" fill-opacity="0.15"/>
<path fill-rule="evenodd" clip-rule="evenodd" d="M22.9615 18.7987L17.5973 22.13C17.0774 22.4493 16.509 22.5292 15.9042 22.3672L11.2098 21.1091C11.1343 21.089 11.0539 21.0995 10.9862 21.1386L8.69012 22.4644L6.87573 19.3244L11.1439 16.8527C11.7435 16.5056 12.3916 16.2147 13.0761 16.4365C13.2789 16.5023 13.5198 16.5855 13.7745 16.6737C14.6253 16.9672 15.6842 17.3327 16.7707 17.5712C16.9405 17.6082 17.0861 17.7148 17.1796 17.8704C17.2317 17.9552 17.2659 18.0496 17.2802 18.148C17.2945 18.2465 17.2886 18.3468 17.2628 18.4428C17.1658 18.8027 16.8036 19.0298 16.4379 18.9595C16.4328 18.9583 12.7676 17.978 12.7676 17.978C12.6116 17.9357 12.4505 18.0291 12.4072 18.1856C12.3656 18.3424 12.4592 18.5036 12.6151 18.5455L16.2369 19.5156C17.0479 19.7334 17.7186 19.7712 18.5469 19.2882L21.2735 17.7006C22.4242 17.0299 23.2196 17.1772 23.4726 17.5978C23.665 17.9197 23.5506 18.4353 22.9615 18.7987ZM17.9322 11.5048L15.005 15.1241L15.3105 12.5271C15.3105 12.5263 15.3106 12.5254 15.3108 12.5249L15.3108 12.5245C15.3105 12.5244 15.3102 12.5243 15.3099 12.5242H13.2381L16.006 8.97922L15.8603 11.5048H17.9322ZM15.5854 8.12537C13.4192 8.12537 11.6586 9.88638 11.6586 12.0509C11.6586 14.2157 13.4193 15.9767 15.5854 15.9767C17.7498 15.9767 19.5104 14.2157 19.5104 12.0509C19.5104 9.88635 17.7498 8.12537 15.5854 8.12537Z" fill="#01AAFF"/>
</svg>
