<svg width="19" height="18" viewBox="0 0 19 18" fill="none" xmlns="http://www.w3.org/2000/svg">
<path d="M8.94824 0.345482C9.09791 -0.115173 9.74962 -0.115172 9.8993 0.345483L11.7812 6.13728C11.8481 6.34329 12.0401 6.48277 12.2567 6.48277H18.3465C18.8309 6.48277 19.0323 7.10258 18.6404 7.38728L13.7136 10.9668C13.5384 11.0941 13.4651 11.3198 13.532 11.5258L15.4139 17.3176C15.5636 17.7783 15.0363 18.1613 14.6445 17.8766L9.71766 14.2971C9.54242 14.1698 9.30512 14.1698 9.12987 14.2971L4.20308 17.8766C3.81122 18.1613 3.28398 17.7783 3.43366 17.3176L5.31553 11.5258C5.38246 11.3198 5.30913 11.0941 5.13389 10.9668L0.207093 7.38728C-0.184763 7.10258 0.0166256 6.48277 0.500987 6.48277H6.59084C6.80746 6.48277 6.99943 6.34329 7.06637 6.13728L8.94824 0.345482Z" fill="#0663CD"/>
</svg>
