<svg width="44" height="45" viewBox="0 0 44 45" fill="none" xmlns="http://www.w3.org/2000/svg">
<path fill-rule="evenodd" clip-rule="evenodd" d="M22.1842 0L12.1005 4.03348V9.94252C12.1005 12.4623 12.7301 14.9422 13.9319 17.1569C15.1338 19.3716 16.8699 21.251 18.9826 22.6243L22.1842 24.705L25.3858 22.6243C27.4986 21.2509 29.2347 19.3715 30.4366 17.1567C31.6385 14.9419 32.268 12.4619 32.2679 9.94202V4.03348L22.1842 0ZM28.9474 8.77987C29.0437 8.68685 29.1205 8.57558 29.1733 8.45256C29.2262 8.32953 29.254 8.19722 29.2552 8.06332C29.2563 7.92943 29.2308 7.79665 29.1801 7.67273C29.1294 7.5488 29.0545 7.43622 28.9599 7.34154C28.8652 7.24686 28.7526 7.17199 28.6287 7.12128C28.5047 7.07058 28.372 7.04507 28.2381 7.04623C28.1042 7.0474 27.9719 7.07521 27.8488 7.12806C27.7258 7.18091 27.6145 7.25773 27.5215 7.35404L21.1758 13.6997L18.8637 11.3875C18.7706 11.2912 18.6594 11.2144 18.5363 11.1615C18.4133 11.1087 18.281 11.0809 18.1471 11.0797C18.0132 11.0785 17.8804 11.1041 17.7565 11.1548C17.6326 11.2055 17.52 11.2803 17.4253 11.375C17.3306 11.4697 17.2558 11.5823 17.2051 11.7062C17.1544 11.8301 17.1289 11.9629 17.13 12.0968C17.1312 12.2307 17.159 12.363 17.2118 12.486C17.2647 12.6091 17.3415 12.7203 17.4378 12.8133L21.1758 16.5514L28.9474 8.77987Z" fill="#F7FF00"/>
<path d="M26.7218 32.755C26.7218 30.8895 27.3152 29.0835 28.3987 27.5921C28.6502 27.25 28.9266 26.927 29.2256 26.6256L35.0711 20.7367C35.2425 20.5636 35.4455 20.425 35.669 20.3283C35.7986 20.2754 35.9322 20.235 36.0674 20.2063C36.4685 20.1291 36.8838 20.1824 37.2523 20.3585C37.6209 20.5346 37.9234 20.8242 38.1153 21.1847C38.3073 21.5453 38.3786 21.9579 38.3189 22.362C38.2592 22.7661 38.0716 23.1404 37.7836 23.4301L33.8005 27.4424C33.7539 27.4894 33.717 27.5451 33.6919 27.6064C33.6668 27.6677 33.654 27.7333 33.6542 27.7995C33.6545 27.8657 33.6678 27.9313 33.6934 27.9924C33.7189 28.0534 33.7563 28.1089 33.8033 28.1555C33.8503 28.2022 33.9061 28.2391 33.9673 28.2642C34.0286 28.2893 34.0942 28.3021 34.1605 28.3018C34.2267 28.3016 34.2922 28.2883 34.3533 28.2627C34.4144 28.2371 34.4698 28.1998 34.5165 28.1528L38.4995 24.14C38.9944 23.6411 39.2928 22.9806 39.34 22.2796C39.3873 21.5785 39.1801 20.884 38.7567 20.3233V11.8807C38.7567 11.2703 38.9992 10.6849 39.4308 10.2532C39.8624 9.82159 40.4479 9.5791 41.0583 9.5791C41.6687 9.5791 42.2541 9.82159 42.6858 10.2532C43.1174 10.6849 43.3599 11.2703 43.3599 11.8807V26.4108C43.3599 29.4329 42.1801 32.3355 40.0711 34.5009L39.213 35.3823C38.3034 34.8861 37.2624 34.684 36.2332 34.804L26.7218 35.8915V32.755ZM36.3477 35.8063C36.9123 35.7416 37.4843 35.797 38.026 35.9689C38.5678 36.1408 39.067 36.4253 39.4911 36.8037C39.9152 37.182 40.2545 37.6458 40.4868 38.1645C40.7191 38.6832 40.8391 39.2452 40.839 39.8135V40.3349C40.839 41.4046 40.414 42.4305 39.6576 43.187C38.9012 43.9434 37.8752 44.3683 36.8055 44.3683H26.923C25.9704 44.3682 25.054 44.0036 24.3617 43.3494C23.6693 42.6952 23.2534 41.801 23.1992 40.85C23.1451 39.899 23.4568 38.9633 24.0704 38.2347C24.684 37.5062 25.5531 37.0399 26.4994 36.9316L36.3477 35.8063ZM6.5544 44.3683C5.48466 44.3683 4.45872 43.9434 3.7023 43.187C2.94588 42.4305 2.52092 41.4046 2.52092 40.3349V39.8135C2.52079 39.2452 2.64079 38.6832 2.87307 38.1645C3.10536 37.6458 3.44467 37.182 3.86875 36.8037C4.29284 36.4253 4.79212 36.1408 5.33385 35.9689C5.87559 35.797 6.44754 35.7416 7.0122 35.8063L16.8604 36.9316C17.8068 37.0399 18.6759 37.5062 19.2895 38.2347C19.9031 38.9633 20.2148 39.899 20.1606 40.85C20.1065 41.801 19.6906 42.6952 18.9982 43.3494C18.3058 44.0036 17.3895 44.3682 16.4369 44.3683H6.5544ZM16.6381 32.755C16.6381 30.8895 16.0447 29.0835 14.9612 27.5921C14.7097 27.25 14.4333 26.927 14.1343 26.6256L8.2888 20.7367C8.11741 20.5636 7.91442 20.425 7.69083 20.3283C7.56197 20.2758 7.42867 20.235 7.29253 20.2063C6.89141 20.1291 6.47611 20.1824 6.10754 20.3585C5.73896 20.5346 5.43651 20.8242 5.24456 21.1847C5.0526 21.5453 4.98124 21.9579 5.04094 22.362C5.10064 22.7661 5.28826 23.1404 5.57628 23.4301L9.55934 27.4424C9.60599 27.4894 9.64292 27.5451 9.66802 27.6064C9.69313 27.6677 9.70591 27.7333 9.70566 27.7995C9.7054 27.8657 9.6921 27.9313 9.66652 27.9924C9.64094 28.0534 9.60358 28.1089 9.55657 28.1555C9.50956 28.2022 9.45382 28.2391 9.39254 28.2642C9.33126 28.2893 9.26563 28.3021 9.19941 28.3018C9.13319 28.3016 9.06766 28.2883 9.00658 28.2627C8.94549 28.2371 8.89005 28.1998 8.8434 28.1528L4.86034 24.14C4.36549 23.6411 4.06707 22.9806 4.01984 22.2796C3.97261 21.5785 4.17973 20.884 4.60321 20.3233V11.8807C4.60321 11.2703 4.36072 10.6849 3.92908 10.2532C3.49745 9.82159 2.91203 9.5791 2.3016 9.5791C1.69118 9.5791 1.10576 9.82159 0.674124 10.2532C0.24249 10.6849 0 11.2703 0 11.8807V26.4108C0 29.4329 1.17979 32.3355 3.2888 34.5009L4.14692 35.3823C5.05648 34.8861 6.0975 34.684 7.12665 34.804L16.6381 35.8915V32.755Z" fill="#F7FF00"/>
</svg>
