<svg width="24" height="27" viewBox="0 0 24 27" fill="none" xmlns="http://www.w3.org/2000/svg">
<path d="M11.8688 13.5446C15.3732 13.5446 18.2232 9.83473 18.2232 6.33957C18.2232 2.84412 15.3732 0 11.8688 0C8.36502 0 5.51444 2.84383 5.51444 6.33928C5.51473 9.83473 8.36531 13.5446 11.8688 13.5446ZM16.6396 13.6093C15.3655 14.58 13.8065 15.1052 12.2033 15.1037H11.5344C9.93119 15.1052 8.37215 14.58 7.0981 13.6093C3.07337 14.2583 0 17.7384 0 21.9359C0 24.2419 5.31375 26.1115 11.8688 26.1115C18.4239 26.1115 23.7377 24.2419 23.7377 21.9359C23.7377 17.7384 20.664 14.2583 16.6396 13.6093Z" fill="#01AAFF"/>
</svg>
