<svg width="41" height="65" viewBox="0 0 41 65" fill="none" xmlns="http://www.w3.org/2000/svg">
<path d="M26.0335 2.00278L24.9087 2.84395L25.3386 4.21085C25.3739 4.316 25.3327 4.43115 25.2502 4.49625C25.209 4.52629 25.156 4.54631 25.103 4.54631C25.05 4.54631 25.0029 4.53129 24.9558 4.49625L23.8309 3.65508L22.7061 4.49625C22.6178 4.56134 22.5 4.56134 22.4175 4.49625C22.3292 4.43115 22.2939 4.316 22.3292 4.21085L22.7591 2.84395L21.6225 2.00278C21.5342 1.93769 21.4988 1.82253 21.5342 1.71739C21.5695 1.61224 21.6637 1.54214 21.7697 1.54214H23.1655L23.5954 0.175243C23.6307 0.0700974 23.7249 0 23.8309 0C23.937 0 24.0312 0.0700974 24.0665 0.175243L24.4964 1.54214H25.8922C25.9982 1.54214 26.0924 1.61224 26.1277 1.71739C26.1572 1.82253 26.1218 1.93769 26.0335 2.00278Z" fill="#106B31"/>
<path d="M35.9391 6.94464C35.7624 7.07482 35.5622 7.08984 35.3737 7.01974C35.2442 6.97468 35.203 7.00973 35.1441 7.11488C34.1841 8.84227 33.2242 10.5747 32.2643 12.3021C32.0405 12.7127 31.8108 13.1182 31.587 13.5288C31.2925 13.1232 30.845 13.0531 30.4151 12.983C30.1029 12.933 29.7967 12.8879 29.4846 12.8478C29.0429 12.7928 28.6012 12.7427 28.1536 12.7026C27.4293 12.6375 26.7049 12.5975 25.9805 12.5624C24.4434 12.4873 22.9005 12.4773 21.3634 12.5524C20.5802 12.5925 19.7969 12.6476 19.0195 12.7377C18.5484 12.7928 18.0831 12.8528 17.6179 12.9279C17.3293 12.973 17.0408 13.0231 16.7581 13.0782C16.4695 13.1332 16.1986 13.2384 16.0337 13.5588C15.8688 13.2784 15.7157 13.0131 15.5626 12.7477C14.3965 10.7349 13.2246 8.72211 12.0585 6.70931C11.9996 6.60917 11.9643 6.51404 11.8053 6.57412C11.5049 6.67927 11.2046 6.54408 11.0691 6.2687C10.9278 5.99332 11.0103 5.6228 11.2517 5.44255C11.4755 5.27232 11.823 5.28734 12.035 5.48261C12.2646 5.6929 12.3294 6.04339 12.1469 6.31376C12.0526 6.44895 12.0821 6.49902 12.1881 6.58915C13.6015 7.79081 15.009 8.98748 16.4106 10.1992C16.5696 10.3343 16.6167 10.3343 16.6874 10.1241C16.9995 9.20778 17.3293 8.29652 17.6473 7.38024C17.665 7.33017 17.6827 7.28011 17.7062 7.22503C17.7946 7.23504 17.8358 7.31015 17.8888 7.36022C19.1079 8.59193 20.3269 9.82364 21.546 11.0604C21.8463 11.3708 22.1526 11.6762 22.4529 11.9866C22.4765 12.0067 22.4941 12.0267 22.5118 12.0417C22.5942 12.1068 22.6355 12.1018 22.6826 12.0317C22.7002 12.0067 22.7179 11.9716 22.7415 11.9316C22.9123 11.6011 23.083 11.2706 23.2538 10.9402C23.4011 10.6548 23.5542 10.3694 23.7073 10.089C23.7426 10.0139 23.7662 9.92878 23.8604 9.8687C24.0783 10.2643 24.3021 10.6548 24.52 11.0503C24.6496 11.2807 24.7791 11.511 24.9028 11.7463C25.103 12.1118 25.103 12.1168 25.3975 11.8064L25.8627 11.3307C27.1583 9.99387 28.454 8.65702 29.7496 7.32517C29.8085 7.26508 29.8674 7.21001 29.9498 7.1299C30.2089 7.83588 30.4622 8.52183 30.7154 9.20778C30.8273 9.51321 30.951 9.81863 31.057 10.1291C31.1041 10.2693 31.1453 10.2793 31.2572 10.1841C32.2054 9.35799 33.1594 8.54186 34.1135 7.72072C34.3961 7.48038 34.6729 7.23504 34.9556 6.99972C35.0675 6.90458 35.1146 6.83949 35.0322 6.67927C34.8732 6.37885 35.0027 6.00834 35.2913 5.84812C35.5916 5.68289 35.9568 5.78303 36.1334 6.07844C36.2866 6.36383 36.2041 6.74436 35.9391 6.94464Z" fill="#106B31"/>
<path d="M31.3809 9.25285C31.1277 8.47176 30.8862 7.72072 30.6447 6.96968C30.5564 6.69429 30.4563 6.42392 30.3856 6.14353C30.3326 5.94826 30.2796 5.98831 30.1736 6.09847C29.1548 7.13491 28.1301 8.16634 27.1054 9.20278C26.5577 9.75354 26.01 10.2943 25.4682 10.8501C25.3445 10.9752 25.3092 10.9452 25.2267 10.81C24.7732 10.0389 24.3139 9.27288 23.8369 8.47176C23.6661 8.75716 23.5012 9.01752 23.3422 9.28289C23.0418 9.78359 22.7415 10.2843 22.4529 10.79C22.3469 10.9752 22.288 10.9402 22.1585 10.815C20.5919 9.22781 19.0195 7.64562 17.453 6.06342C17.4294 6.03838 17.4 6.01335 17.3411 5.95827C16.9701 7.06481 16.605 8.14631 16.2281 9.27788C16.0102 9.05257 15.8158 8.85229 15.6215 8.64701C15.539 8.56189 15.6156 8.48178 15.6333 8.40667C15.9866 7.15493 16.34 5.9082 16.6992 4.66147C16.7404 4.52128 16.7463 4.4662 16.5755 4.42614C16.2811 4.36105 16.1103 4.09068 16.1221 3.77524C16.1338 3.47482 16.3164 3.24951 16.6167 3.17941C16.8759 3.11432 17.1585 3.24951 17.294 3.49986C17.4353 3.76523 17.3941 4.09569 17.1527 4.28595C17.0113 4.3961 17.0525 4.44617 17.1527 4.5413C18.8252 6.19861 20.4918 7.85591 22.1585 9.51321C22.1702 9.52322 22.1879 9.52823 22.2173 9.54325C22.7474 8.56189 23.2833 7.58053 23.8369 6.5541C24.1137 7.04979 24.3669 7.51544 24.626 7.98108C24.891 8.45674 25.156 8.9324 25.4152 9.41307C25.4858 9.54325 25.5212 9.58331 25.6507 9.45813C27.2644 7.81085 28.8898 6.16857 30.5093 4.5363C30.6271 4.41613 30.6094 4.36606 30.5034 4.25591C30.2561 4.01057 30.2619 3.62003 30.4916 3.36467C30.7154 3.11933 31.0864 3.0943 31.3397 3.30459C31.6047 3.52489 31.6518 3.91043 31.4516 4.19082C31.3632 4.31599 31.2395 4.41613 31.0923 4.42114C30.8803 4.43616 30.9156 4.53129 30.9569 4.67649C31.322 5.89819 31.6753 7.11989 32.0464 8.34158C32.0994 8.52183 32.0994 8.63699 31.9404 8.75716C31.7519 8.90236 31.587 9.06759 31.3809 9.25285Z" fill="#106B31"/>
<path d="M24.2373 4.31098C24.0548 4.01557 23.9723 3.75521 24.0253 3.48484C24.0018 3.48484 23.9841 3.48484 23.9605 3.48484C23.8604 3.48484 23.7662 3.47983 23.6661 3.47482C23.7191 3.62503 23.725 3.73518 23.6425 3.88039C22.9299 5.13213 22.2232 6.38887 21.5106 7.6356C21.4459 7.75076 21.4341 7.82086 21.5519 7.90598C21.6932 8.01112 21.8287 8.12628 21.9523 8.25646C22.076 8.38164 22.1231 8.33658 22.1997 8.20639C22.4235 7.80584 22.659 7.41029 22.8887 7.01474C23.2008 6.479 23.513 5.94325 23.8369 5.37747C23.937 5.5427 24.0194 5.68289 24.1019 5.82308C24.5671 6.61418 25.0324 7.41029 25.4858 8.20639C25.5683 8.3516 25.6331 8.37663 25.745 8.24144C25.8451 8.12128 25.957 8.01112 26.0747 7.91599C26.2102 7.80584 26.2043 7.71071 26.1219 7.56551C25.4858 6.479 24.891 5.37246 24.2373 4.31098Z" fill="#106B31"/>
<path d="M31.4633 14.3199C31.4221 14.2999 31.3809 14.2798 31.3397 14.2598C31.0217 14.1096 30.6919 13.9994 30.3562 13.9093C29.6554 13.7291 28.931 13.659 28.2125 13.5839C26.2455 13.3736 24.2727 13.3035 22.2939 13.3686C20.7333 13.4186 19.1727 13.4988 17.6356 13.8242C17.3588 13.8843 17.082 13.9444 16.817 14.0445C16.6403 14.1096 16.4695 14.1897 16.3046 14.2949C16.2811 14.3099 16.2575 14.3249 16.234 14.3399C16.0808 13.8993 16.0985 13.8542 16.4813 13.679C16.658 13.5989 16.8464 13.5338 17.029 13.4737C17.3117 13.3886 17.6002 13.3285 17.8947 13.2784C18.0773 13.2484 18.2657 13.2234 18.4542 13.2033C21.2574 12.8679 24.0724 12.983 26.8875 13.0481C27.9711 13.0732 29.0547 13.1583 30.1206 13.3736C30.2266 13.3936 30.3267 13.4136 30.4268 13.4387C30.4445 13.4437 30.4622 13.4487 30.4799 13.4537C30.686 13.5038 30.8862 13.5588 31.0864 13.6339C31.5163 13.7892 31.5281 13.8242 31.4633 14.3199Z" fill="#106B31"/>
<path d="M37.8674 54.2316C37.1901 56.7302 36.2773 57.6743 35.2585 57.6113C33.8215 62.1428 32.0194 65.0001 32.0194 65.0001H10.3119L14.293 54.2379C14.293 54.2379 15.3177 50.9967 15.5003 47.4092C15.6829 43.8155 14.293 39.5736 13.1505 38.6421C13.1505 38.6421 15.5651 43.2176 14.2989 49.2092C13.0327 55.2008 10.3767 51.5631 10.3767 48.6302C10.3767 48.6302 6.9669 57.0197 6.0953 48.3155C6.0953 48.3155 3.48051 53.8603 1.34274 51.0344C2.91515 41.2918 7.93272 36.7037 7.93272 36.7037L9.95271 31.4862C9.95271 31.4862 32.5553 32.5372 33.2267 32.6883C33.2267 32.6883 33.6625 33.2169 34.2809 34.1862C34.7225 34.8722 35.2643 35.7848 35.8062 36.8799C37.7614 40.7946 39.799 47.1009 37.8674 54.2316Z" fill="#10923E"/>
<path d="M15.5121 46.7546C15.5121 46.9749 15.5062 47.1889 15.4944 47.4029C15.3118 50.9966 14.2871 54.2315 14.2871 54.2315L14.1693 54.5462L14.0339 54.9175L10.3119 64.9937H0C0.441688 62.6525 0.712589 60.7014 0.871597 59.1154V59.1091L0.877486 59.0714L1.0306 58.0518L1.32506 51.0972C1.33095 51.0721 1.33095 51.0469 1.33684 51.0217C3.47461 53.8539 6.0894 48.3028 6.0894 48.3028C6.38975 51.2735 6.98455 52.2553 7.63825 52.2553C7.65592 52.2553 7.6677 52.2553 7.68536 52.2553H7.69125C7.70892 52.2553 7.72659 52.249 7.73837 52.249C7.75603 52.249 7.76781 52.2427 7.78548 52.2427C7.79726 52.2427 7.80904 52.2364 7.82081 52.2364C7.8267 52.2364 7.83259 52.2301 7.83848 52.2301C7.84437 52.2301 7.84437 52.2301 7.85026 52.2238C7.86204 52.2175 7.86793 52.2175 7.87971 52.2112C7.96804 52.1798 8.05638 52.1357 8.14472 52.0791C8.1565 52.0728 8.17416 52.0602 8.18594 52.0476C8.20361 52.035 8.22128 52.0224 8.23895 52.0098C8.27428 51.9784 8.3155 51.9532 8.35084 51.9154C8.36262 51.9028 8.3744 51.8903 8.39206 51.8777C8.40973 51.8651 8.4274 51.8462 8.44507 51.8336C8.46273 51.8147 8.4804 51.8021 8.49218 51.7833C8.50396 51.7707 8.51574 51.7581 8.5334 51.7455C8.53929 51.7392 8.53929 51.7392 8.54518 51.7329C8.58052 51.6952 8.60996 51.6637 8.6453 51.6259C8.74541 51.5126 8.84553 51.3868 8.93976 51.2609C8.95153 51.242 8.9692 51.2231 8.98098 51.198C8.98687 51.1917 8.98687 51.1854 8.99276 51.1791C9.01043 51.1539 9.02809 51.1287 9.05165 51.0972C9.10465 51.0154 9.16354 50.9336 9.21655 50.8518C9.24599 50.8077 9.26955 50.77 9.299 50.7259C9.31077 50.7007 9.32844 50.6819 9.34022 50.6567C9.48745 50.4112 9.62879 50.1595 9.75246 49.9203C9.76424 49.8952 9.78191 49.8637 9.79368 49.8385C9.97625 49.4924 10.1176 49.1777 10.2177 48.9511C10.2236 48.9385 10.2236 48.9322 10.2295 48.9196C10.2413 48.9007 10.2472 48.8819 10.253 48.863C10.2589 48.8504 10.2648 48.8378 10.2707 48.8252C10.3296 48.6868 10.3649 48.6112 10.3649 48.6112C10.3649 48.6301 10.3649 48.6427 10.3649 48.6616C10.3649 48.7182 10.3649 48.7749 10.3708 48.8252C10.3708 48.8504 10.3708 48.8756 10.3767 48.907C10.3767 48.9196 10.3767 48.9322 10.3767 48.9448C10.3767 48.97 10.3826 48.9889 10.3826 49.014C10.3826 49.0329 10.3885 49.0518 10.3885 49.077C10.3885 49.1021 10.3944 49.1336 10.3944 49.1588C10.4003 49.1903 10.4003 49.2154 10.4062 49.2469C10.412 49.2721 10.412 49.3035 10.4179 49.3287C10.4238 49.3602 10.4238 49.3917 10.4297 49.4231C10.4415 49.5049 10.4533 49.5805 10.4709 49.6623C10.4827 49.7315 10.5004 49.807 10.5181 49.8763C10.5239 49.8952 10.5298 49.914 10.5298 49.9329C10.5416 49.9833 10.5534 50.0273 10.5652 50.0777C10.5769 50.1343 10.5946 50.1847 10.6123 50.2413C10.6182 50.2665 10.6299 50.2917 10.6358 50.3231C10.6535 50.3735 10.6712 50.4301 10.6888 50.4805C10.7065 50.5308 10.7242 50.5812 10.7418 50.6315C10.7477 50.6567 10.7595 50.6756 10.7713 50.7007C10.7831 50.7259 10.7948 50.7511 10.8007 50.7826C10.8125 50.8077 10.8184 50.8329 10.8302 50.8581C10.8714 50.9588 10.9126 51.0532 10.9597 51.1413C10.9715 51.1665 10.9833 51.1854 10.9951 51.2105C11.0069 51.2357 11.0186 51.2546 11.0304 51.2798C11.0422 51.2986 11.054 51.3238 11.0657 51.3427C11.0893 51.3868 11.1129 51.4308 11.1423 51.4686C11.1541 51.4875 11.1659 51.5126 11.1776 51.5315C11.2542 51.6511 11.3366 51.7644 11.4191 51.8651C11.4309 51.884 11.4485 51.8965 11.4603 51.9154C11.5428 52.0098 11.6311 52.0979 11.7253 52.1672C11.743 52.1798 11.7548 52.1924 11.7724 52.2049C11.8667 52.2742 11.9609 52.3308 12.061 52.3686C12.0728 52.3749 12.0905 52.3812 12.1022 52.3812C12.2318 52.4252 12.3555 52.4441 12.4909 52.4252C12.5027 52.4252 12.5204 52.4189 12.5321 52.4189C12.5439 52.4189 12.5616 52.4126 12.5734 52.4126C12.5793 52.4126 12.5793 52.4126 12.5852 52.4126C12.5969 52.4063 12.6087 52.4063 12.6205 52.4C12.6382 52.3938 12.6558 52.3875 12.6676 52.3812C12.6794 52.3749 12.697 52.3686 12.7088 52.3623C12.7324 52.356 12.75 52.3434 12.7736 52.3308C12.7972 52.3182 12.8148 52.3056 12.8384 52.2931C12.8561 52.2805 12.8737 52.2679 12.8973 52.2553C12.9091 52.249 12.9267 52.2364 12.9385 52.2301L12.9444 52.2238C12.9621 52.2112 12.9738 52.1986 12.9915 52.1861C13.0033 52.1735 13.0209 52.1609 13.0327 52.1483C13.0622 52.1231 13.0916 52.0917 13.1211 52.0602L13.127 52.0539C13.1505 52.0287 13.18 51.9973 13.2035 51.9658C13.2506 51.9091 13.2977 51.8462 13.3449 51.7833C13.3625 51.7518 13.3861 51.7203 13.4037 51.6889C13.4155 51.67 13.4273 51.6448 13.445 51.6259C13.4567 51.607 13.4744 51.5819 13.4862 51.563C13.5215 51.5 13.5569 51.4371 13.5922 51.3679C13.5981 51.3616 13.5981 51.3553 13.604 51.349C13.6158 51.3238 13.6275 51.2986 13.6393 51.2735C13.6511 51.2483 13.6629 51.2231 13.6746 51.1917C13.6864 51.1728 13.6923 51.1476 13.7041 51.1224C13.71 51.1035 13.7159 51.091 13.7276 51.0721C13.7394 51.0532 13.7394 51.0343 13.7512 51.0217C13.763 50.9966 13.7689 50.9714 13.7807 50.9462C13.8042 50.8833 13.8337 50.814 13.8572 50.7448C13.869 50.7133 13.8808 50.6819 13.8925 50.6441C13.9043 50.6063 13.9161 50.5749 13.9279 50.5371C13.9397 50.5056 13.9514 50.4742 13.9573 50.4364C13.9691 50.3986 13.9809 50.3672 13.9927 50.3294C14.028 50.2161 14.0633 50.1028 14.0928 49.9833C14.1104 49.9077 14.134 49.8322 14.1517 49.7567C14.1693 49.6812 14.1929 49.5993 14.2106 49.5175C14.2164 49.4798 14.2282 49.4483 14.2341 49.4105C14.2518 49.3413 14.2636 49.2658 14.2812 49.1903C15.5474 43.1987 13.1328 38.6231 13.1328 38.6231C13.1446 38.6357 13.1564 38.642 13.1682 38.6546C13.18 38.6672 13.1917 38.6735 13.2035 38.6861C13.233 38.7113 13.2565 38.7364 13.286 38.7679C13.3036 38.7868 13.3213 38.8057 13.339 38.8245C13.3449 38.8308 13.3449 38.8308 13.3507 38.8371C13.3743 38.8623 13.3979 38.8938 13.4214 38.9252C13.445 38.9567 13.4744 38.9882 13.498 39.0259C13.5098 39.0385 13.5215 39.0574 13.5333 39.0763C13.5569 39.1078 13.5745 39.1392 13.5981 39.1707C13.6158 39.1959 13.6334 39.221 13.6511 39.2462C13.6688 39.2714 13.6864 39.3029 13.7041 39.328C13.7218 39.3532 13.7394 39.3847 13.7571 39.4161C13.7748 39.4476 13.7924 39.4728 13.8101 39.5043C13.8278 39.5357 13.8454 39.5672 13.8631 39.5987C13.8808 39.6301 13.8984 39.6616 13.9161 39.6931C13.9338 39.7245 13.9514 39.756 13.9691 39.7938C14.0044 39.863 14.0398 39.9322 14.0692 40.0015C14.0869 40.0392 14.1046 40.0707 14.1163 40.1085C14.134 40.1399 14.1458 40.1777 14.1634 40.2091C14.187 40.2595 14.2106 40.3161 14.2341 40.3665C14.2636 40.4294 14.2871 40.4924 14.3166 40.5616C14.3166 40.5616 14.3166 40.5616 14.3166 40.5679C14.346 40.6371 14.3755 40.7126 14.4049 40.7882C14.4874 41.0022 14.5698 41.2287 14.6464 41.4679C14.664 41.5119 14.6758 41.556 14.6876 41.6063C14.7053 41.6504 14.717 41.7008 14.7288 41.7448C14.7877 41.9399 14.8466 42.1413 14.8996 42.349C14.9232 42.4371 14.9467 42.5252 14.9703 42.6133C14.982 42.67 14.9997 42.7266 15.0115 42.7833C15.035 42.8777 15.0586 42.9721 15.0763 43.0728C15.0939 43.1546 15.1116 43.2427 15.1293 43.3245C15.1882 43.614 15.2412 43.9035 15.2942 44.2056C15.3001 44.2497 15.3059 44.2938 15.3118 44.3315C15.3648 44.6966 15.412 45.0679 15.4473 45.4329C15.4532 45.4707 15.4532 45.5147 15.4591 45.5588C15.4591 45.584 15.465 45.6029 15.465 45.628C15.4708 45.6721 15.4708 45.7224 15.4767 45.7665C15.4826 45.8546 15.4885 45.9364 15.4944 46.0245C15.4944 46.0686 15.5003 46.1063 15.5003 46.1504C15.5062 46.2574 15.5062 46.3644 15.5121 46.4714C15.5121 46.5595 15.5121 46.6539 15.5121 46.7546Z" fill="#4B80B2"/>
<path d="M34.2867 34.186C33.6625 33.2168 33.2325 32.6881 33.2325 32.6881C33.5211 32.751 33.9216 33.4371 34.2867 34.186Z" fill="#4B80B2"/>
<path d="M37.8674 54.2314L36.6012 65H32.0194C32.0194 65 33.8215 62.1363 35.2585 57.6111C36.0947 54.9804 36.8014 51.7958 36.9722 48.2776L37.8674 54.2314Z" fill="#4B80B2"/>
<path d="M36.8191 65.0002H32.2079C32.2079 65.0002 34.0217 62.124 35.4646 57.5673C36.3008 54.924 37.0193 51.7142 37.1842 48.1771C37.3609 44.4261 36.9251 40.2974 35.3586 36.0806C35.3586 36.0806 35.6118 36.2883 36.0181 36.71C38.3385 39.1205 45.4997 48.4792 36.8191 65.0002Z" fill="#106B31"/>
<path d="M15.5886 47.2959C15.4061 50.9085 14.3755 54.1686 14.3755 54.1686C14.3755 54.1686 14.3755 54.1686 14.3755 54.1749L14.0398 54.9176L13.8808 55.2763L11.7136 59.0588L2.16133 61.847L1.0365 58.0581L1.33096 51.1036V51.0596L1.33685 50.9274C1.34274 50.9337 1.34273 50.94 1.34862 50.9463L1.35451 50.9526C3.50406 53.7847 6.13063 48.2148 6.13063 48.2148C6.66654 53.5456 8.14472 52.5008 9.22244 50.8707C9.77602 50.0337 10.2177 49.0456 10.3767 48.6805C10.4179 48.5861 10.4356 48.5358 10.4356 48.5358C10.4356 50.6945 11.8667 53.2309 13.1328 52.0791C13.5981 51.6575 14.0398 50.7386 14.3814 49.1211C15.4178 44.212 13.9986 40.2407 13.4391 38.9442C13.3095 38.6484 13.2271 38.491 13.2271 38.491C14.3755 39.4162 15.7712 43.6833 15.5886 47.2959Z" fill="#11843A"/>
<path d="M14.3755 54.1751L10.3767 65.0002H0C0.441688 62.659 0.712589 60.7079 0.871597 59.1219V59.1156L0.877486 59.0779L1.0306 58.0583C2.82091 59.9716 5.27669 54.6219 5.27669 54.6219C6.00695 62.9863 9.82902 54.6219 9.82902 54.6219C10.147 61.4254 13.3331 56.0884 14.1752 54.5527C14.2812 54.3576 14.3519 54.2254 14.3696 54.1877C14.3696 54.1814 14.3696 54.1814 14.3755 54.1751Z" fill="#106B31"/>
<path d="M36.8249 40.8385C36.7543 40.807 36.6836 40.7756 36.6129 40.7441C34.1454 39.6427 33.2267 38.5917 32.9558 38.2014C32.8851 38.1007 32.8556 38.0441 32.8556 38.0441C32.8498 38.0567 32.8439 38.063 32.838 38.0756C32.3845 38.8497 32.8556 41.5497 32.8556 41.5497C30.2762 41.8266 27.4906 36.9679 27.4906 36.9679C25.4765 41.9714 20.7829 41.5434 20.7829 41.5434C21.5013 37.6728 20.4236 36.6469 20.4236 36.6469C17.7146 40.5742 13.4096 39.9259 13.4096 39.9259C14.7995 38.3084 14.5462 35.1364 14.5462 35.1364C12.5498 37.377 7.60879 39.0889 7.53223 39.1203C7.60879 39.0889 7.69123 38.7616 7.76779 38.277C7.99747 36.8798 8.22126 34.2049 8.26837 33.9028C8.91029 30.1833 9.74655 26.47 10.9951 22.9203C11.6016 21.1959 12.2966 19.4147 13.2271 17.8287C13.2977 17.7092 13.3743 17.5833 13.445 17.4637C21.1774 4.91406 32.4022 14.4931 32.6201 14.556C33.0147 14.921 33.3975 15.3113 33.7449 15.7141C34.9051 17.0546 35.7001 18.5399 35.4822 19.8616V19.8679C34.9993 22.7504 34.8226 25.4315 34.8285 27.8546C34.8285 27.9427 34.8285 28.0245 34.8285 28.1063C34.8285 28.27 34.8285 28.4336 34.8344 28.5973C34.9757 36.049 36.8249 40.8385 36.8249 40.8385Z" fill="#F4E1EF"/>
<path d="M24.2928 24.1855C24.2928 24.1855 26.5955 24.7078 28.5448 22.4924C29.3398 21.4855 30.0524 20.126 30.0524 20.126C30.0524 20.126 31.7544 17.7848 34.911 19.698C38.0676 21.6113 37.5317 28.8176 35.8179 30.6994L35.6412 30.2966L35.6177 30.6994C35.6177 30.6994 35.0759 26.9987 34.0806 28.44C34.0806 28.44 30.9829 30.4162 27.3611 28.9246C23.7392 27.4267 23.4094 24.4687 24.2928 24.1855Z" fill="#FFB83C"/>
<path d="M35.2702 29.1576C35.2702 29.1576 33.368 27.2443 30.5412 27.8485C27.7144 28.4527 24.9583 27.0303 24.8994 25.1862C24.8994 24.5254 25.9948 25.7527 26.3599 26.0736C26.7251 26.3946 27.5672 27.1625 31.2185 26.9107C34.8698 26.659 35.2702 29.1576 35.2702 29.1576Z" fill="#1B222D"/>
<path d="M26.3776 20.277C26.1774 21.6742 25.0879 22.2973 24.0985 22.2973C23.1091 22.2973 22.0255 21.6742 21.8194 20.277C21.7899 20.0756 21.8311 19.8805 21.9254 19.761C21.9843 19.6854 22.0608 19.6477 22.1492 19.6477H22.155C22.3435 19.6477 22.4907 19.8428 22.532 20.1449C22.6733 21.1015 23.4153 21.5232 24.0985 21.5232C24.7757 21.5232 25.5237 21.0952 25.665 20.1449C25.7121 19.8365 25.8593 19.6477 26.0478 19.6414C26.1361 19.6414 26.2127 19.6791 26.2716 19.7547C26.3658 19.8805 26.407 20.0756 26.3776 20.277Z" fill="#1B222D"/>
<path d="M32.9145 22.9142C33.2333 22.9142 33.4917 22.6381 33.4917 22.2974C33.4917 21.9568 33.2333 21.6806 32.9145 21.6806C32.5958 21.6806 32.3374 21.9568 32.3374 22.2974C32.3374 22.6381 32.5958 22.9142 32.9145 22.9142Z" fill="#1B222D"/>
</svg>
