<svg width="28" height="10" viewBox="0 0 28 10" fill="none" xmlns="http://www.w3.org/2000/svg">
<path d="M13.6038 0.164384L11.768 9.15003H9.548L11.3842 0.164384H13.6038ZM22.9441 5.96645L24.1128 2.59203L24.7854 5.96645H22.9441ZM25.421 9.15003H27.4744L25.6825 0.164384H23.7872C23.3613 0.164384 23.0019 0.423757 22.8419 0.823625L19.5113 9.15003H21.8426L22.3055 7.80823H25.1537L25.421 9.15003ZM19.627 6.21615C19.6365 3.84453 16.4947 3.71399 16.5164 2.6546C16.5229 2.3318 16.8166 1.98939 17.4579 1.90151C17.7765 1.85799 18.6525 1.82472 19.6471 2.30393L20.0366 0.398446C19.5024 0.195384 18.8149 0 17.9598 0C15.7657 0 14.2212 1.2215 14.2082 2.97057C14.1943 4.26402 15.3107 4.98583 16.1519 5.41585C17.0168 5.85638 17.3074 6.13851 17.3036 6.53241C17.2979 7.13562 16.6137 7.40125 15.9754 7.41177C14.859 7.43026 14.2112 7.09637 13.6948 6.84439L13.2926 8.8133C13.8111 9.06272 14.7685 9.27944 15.7619 9.29053C18.0937 9.29053 19.6194 8.0841 19.627 6.21615ZM10.4316 0.164384L6.83479 9.15003H4.48771L2.71783 1.97886C2.61027 1.53719 2.51684 1.37565 2.19008 1.18937C1.65689 0.886478 0.775477 0.601793 0 0.425464L0.0529659 0.164384H3.83039C4.3117 0.164384 4.74494 0.499977 4.85413 1.08044L5.78905 6.28043L8.09918 0.164384H10.4316Z" fill="#1434CB"/>
</svg>
