<svg width="29" height="57" viewBox="0 0 29 57" fill="none" xmlns="http://www.w3.org/2000/svg">
<path d="M16.7592 56.522C12.5964 51.7094 9.28214 46.8685 6.62695 41.7229C3.96902 36.5717 2.05816 31.2834 0.785096 25.5555C0.178497 22.8265 -0.0847706 19.7874 0.0239048 16.7667C0.132809 13.7393 0.613496 10.7817 1.41419 8.21343C2.15692 5.8315 3.26266 3.79132 4.61192 2.31347C5.99373 0.800006 7.52511 0 9.04062 0C9.37541 0 9.71166 0.039891 10.04 0.118566C12.21 0.638514 13.989 2.11306 15.3275 4.50106C16.1121 5.90065 16.6432 7.44586 17 8.82102C17.3568 7.44586 17.8879 5.90079 18.6725 4.50106C20.011 2.11306 21.79 0.638652 23.96 0.118566C24.2883 0.039891 24.6246 0 24.9594 0C26.4748 0 28.0063 0.800003 29.3881 2.31361C30.7374 3.7916 31.8432 5.83164 32.5858 8.21343C33.3865 10.7818 33.8672 13.7395 33.9761 16.7667C34.0848 19.7874 33.8215 22.8265 33.2149 25.5555C31.9418 31.2834 30.031 36.5717 27.373 41.7229C24.7179 46.8685 21.4036 51.7094 17.2408 56.522L17.0001 56.8003L16.7592 56.522Z" fill="white" fill-opacity="0.1"/>
</svg>
