<svg xmlns="http://www.w3.org/2000/svg" xmlns:xlink="http://www.w3.org/1999/xlink" width="335" zoomAndPan="magnify" viewBox="0 0 251.25 74.999997" height="100" preserveAspectRatio="xMidYMid meet" version="1.0"><defs><clipPath id="0eb4afa866"><path d="M 121.625 0.113281 L 250.234375 0.113281 L 250.234375 74.554688 L 121.625 74.554688 Z M 121.625 0.113281 " clip-rule="nonzero"/></clipPath><clipPath id="3290e1b872"><path d="M 0 0.113281 L 128.617188 0.113281 L 128.617188 74.886719 L 0 74.886719 Z M 0 0.113281 " clip-rule="nonzero"/></clipPath><clipPath id="2472eefdf3"><path d="M 0.265625 0.113281 L 128.617188 0.113281 L 128.617188 74.554688 L 0.265625 74.554688 Z M 0.265625 0.113281 " clip-rule="nonzero"/></clipPath><clipPath id="94db10099a"><rect x="0" width="129" y="0" height="75"/></clipPath></defs><g clip-path="url(#0eb4afa866)"><path fill="#ffffff" d="M 22.175781 31.195312 C 22.175781 13.847656 36.28125 -0.210938 53.679688 -0.210938 L 198.265625 -0.210938 C 198.265625 -0.210938 220.582031 -2.082031 225.8125 42.40625 C 227.992188 60.949219 250.222656 74.554688 250.222656 74.554688 L 22.175781 74.554688 Z M 22.175781 31.195312 " fill-opacity="1" fill-rule="nonzero"/><path stroke-linecap="butt" transform="matrix(0.750155, 0, 0, 0.747768, 22.174224, -0.223116)" fill="none" stroke-linejoin="miter" d="M 235.083584 0.502108 C 235.291874 0.496884 235.60431 0.502108 236.005268 0.523003 C 236.801978 0.570018 237.963196 0.700615 239.379569 1.040167 C 242.212316 1.719272 246.081306 3.234197 250.169001 6.587929 C 258.34439 13.290168 267.488329 27.394646 270.966775 57.066289 C 272.440428 69.634946 280.673098 80.484947 288.468358 88.158828 C 292.373799 92.003604 296.190717 95.070022 299.02867 97.170022 C 300.377349 98.173007 301.502116 98.951366 302.314448 99.499873 L 0.501972 99.499873 L 0.501972 42.016289 C 0.501972 19.093899 19.081456 0.512555 41.998584 0.512555 L 234.797185 0.512555 C 234.8076 0.512555 234.828429 0.512555 234.854465 0.507332 C 234.90133 0.507332 234.979439 0.502108 235.083584 0.502108 Z M 235.083584 0.502108 " stroke="#000000" stroke-width="1" stroke-opacity="0.05" stroke-miterlimit="4"/></g><g clip-path="url(#3290e1b872)"><g transform="matrix(1, 0, 0, 1, 0, 0.000000000000013073)"><g clip-path="url(#94db10099a)"><g clip-path="url(#2472eefdf3)"><path fill="#ffffff" d="M 228.324219 31.195312 C 228.324219 13.847656 214.21875 -0.210938 196.816406 -0.210938 L 52.230469 -0.210938 C 52.230469 -0.210938 29.914062 -2.082031 24.683594 42.40625 C 22.503906 60.949219 0.277344 74.554688 0.277344 74.554688 L 228.324219 74.554688 Z M 228.324219 31.195312 " fill-opacity="1" fill-rule="nonzero"/><path stroke-linecap="butt" transform="matrix(-0.750155, 0, 0, 0.747768, 228.323852, -0.223116)" fill="none" stroke-linejoin="miter" d="M 235.086226 0.502108 C 235.294516 0.496884 235.601744 0.502108 236.002703 0.523003 C 236.80462 0.570018 237.965838 0.700615 239.382211 1.040167 C 242.214958 1.719272 246.078741 3.234197 250.166436 6.587929 C 258.341825 13.290168 267.485764 27.394646 270.96421 57.066289 C 272.437863 69.634946 280.670533 80.484947 288.471 88.158828 C 292.376441 92.003604 296.188152 95.070022 299.026105 97.170022 C 300.374784 98.173007 301.504759 98.951366 302.31709 99.499873 L 0.499407 99.499873 L 0.499407 42.016289 C 0.499407 19.093899 19.078891 0.512555 42.001226 0.512555 L 234.79462 0.512555 C 234.810242 0.512555 234.825864 0.512555 234.8519 0.507332 C 234.903972 0.507332 234.982081 0.502108 235.086226 0.502108 Z M 235.086226 0.502108 " stroke="#000000" stroke-width="1" stroke-opacity="0.05" stroke-miterlimit="4"/></g></g></g></g></svg>