<svg width="24" height="24" viewBox="0 0 24 24" fill="none" xmlns="http://www.w3.org/2000/svg">
<path d="M2.06202 12.3481C1.97868 12.1236 1.97868 11.8766 2.06202 11.6521C2.87372 9.68397 4.25153 8.00116 6.02079 6.81701C7.79004 5.63287 9.87106 5.00073 12 5.00073C14.129 5.00073 16.21 5.63287 17.9792 6.81701C19.7485 8.00116 21.1263 9.68397 21.938 11.6521C22.0214 11.8766 22.0214 12.1236 21.938 12.3481C21.1263 14.3163 19.7485 15.9991 17.9792 17.1832C16.21 18.3674 14.129 18.9995 12 18.9995C9.87106 18.9995 7.79004 18.3674 6.02079 17.1832C4.25153 15.9991 2.87372 14.3163 2.06202 12.3481Z" stroke="white" stroke-width="2" stroke-linecap="round" stroke-linejoin="round"/>
<path d="M12 15C13.6569 15 15 13.6569 15 12C15 10.3431 13.6569 9 12 9C10.3431 9 9 10.3431 9 12C9 13.6569 10.3431 15 12 15Z" stroke="white" stroke-width="2" stroke-linecap="round" stroke-linejoin="round"/>
</svg>
