<svg width="29" height="54" viewBox="0 0 29 54" fill="none" xmlns="http://www.w3.org/2000/svg">
<path d="M16.7592 52.8173C12.5964 48.3201 9.28214 43.7965 6.62695 38.9882C3.96902 34.1746 2.05816 29.2329 0.785096 23.8805C0.178497 21.3303 -0.0847706 18.4904 0.0239048 15.6677C0.132809 12.8388 0.613496 10.075 1.41419 7.67508C2.15692 5.44927 3.26266 3.54282 4.61192 2.16183C5.99373 0.747569 7.52511 0 9.04062 0C9.37541 0 9.71166 0.0372763 10.04 0.110795C12.21 0.596662 13.989 1.97455 15.3275 4.20603C16.1121 5.51389 16.6432 6.95782 17 8.24284C17.3568 6.95782 17.8879 5.51402 18.6725 4.20603C20.011 1.97455 21.79 0.596791 23.96 0.110795C24.2883 0.0372763 24.6246 0 24.9594 0C26.4748 0 28.0063 0.747566 29.3881 2.16196C30.7374 3.54308 31.8432 5.4494 32.5858 7.67508C33.3865 10.0751 33.8672 12.8389 33.9761 15.6677C34.0848 18.4904 33.8215 21.3303 33.2149 23.8805C31.9418 29.2329 30.031 34.1746 27.373 38.9882C24.7179 43.7965 21.4036 48.3201 17.2408 52.8173L17.0001 53.0773L16.7592 52.8173Z" fill="white" fill-opacity="0.1"/>
</svg>
