<svg width="33" height="33" viewBox="0 0 33 33" fill="none" xmlns="http://www.w3.org/2000/svg">
<path d="M22.9459 2.69946H9.44831C5.72106 2.69946 2.69952 5.721 2.69952 9.44825V22.9458C2.69952 26.6731 5.72106 29.6946 9.44831 29.6946H22.9459C26.6731 29.6946 29.6947 26.6731 29.6947 22.9458V9.44825C29.6947 5.721 26.6731 2.69946 22.9459 2.69946Z" stroke="white" stroke-width="2.69951" stroke-linecap="round" stroke-linejoin="round"/>
<path d="M21.5961 15.3468C21.7627 16.4702 21.5708 17.6174 21.0478 18.6254C20.5248 19.6334 19.6972 20.4508 18.6829 20.9614C17.6685 21.4719 16.519 21.6497 15.3978 21.4692C14.2766 21.2888 13.2408 20.7595 12.4378 19.9565C11.6348 19.1535 11.1055 18.1177 10.9251 16.9965C10.7446 15.8753 10.9223 14.7258 11.4329 13.7114C11.9435 12.6971 12.7609 11.8695 13.7689 11.3465C14.7769 10.8234 15.9241 10.6316 17.0475 10.7982C18.1933 10.9681 19.2541 11.502 20.0732 12.3211C20.8923 13.1402 21.4262 14.201 21.5961 15.3468Z" stroke="white" stroke-width="2.69951" stroke-linecap="round" stroke-linejoin="round"/>
<path d="M23.6208 8.77344H23.6343" stroke="white" stroke-width="2.69951" stroke-linecap="round" stroke-linejoin="round"/>
</svg>
