<svg width="88" height="40" viewBox="0 0 88 40" fill="none" xmlns="http://www.w3.org/2000/svg">
<rect width="88" height="40" rx="10" fill="white"/>
<rect x="0.5" y="0.5" width="87" height="39" rx="9.5" stroke="black" stroke-opacity="0.4"/>
<path fill-rule="evenodd" clip-rule="evenodd" d="M24.2515 13.8736C25.0235 13.1131 25.5438 12.0539 25.4014 11C24.289 11.036 22.9432 11.604 22.1455 12.3636C21.4292 13.0377 20.8039 14.1148 20.972 15.148C22.213 15.2263 23.4796 14.635 24.2515 13.8736ZM27.0342 20.5626C27.0653 23.2869 29.9679 24.1931 30 24.2048C29.9764 24.2687 29.5364 25.4961 28.4711 26.7651C27.5492 27.8613 26.5931 28.953 25.0867 28.9764C23.607 28.9989 23.1305 28.2619 21.4378 28.2619C19.7461 28.2619 19.2172 28.9529 17.8168 28.9988C16.3628 29.0429 15.2546 27.8129 14.3263 26.7203C12.427 24.4856 10.9762 20.4052 12.9248 17.6512C13.8927 16.2841 15.6219 15.4171 17.4998 15.3955C18.927 15.373 20.275 16.1777 21.1476 16.1777C22.0202 16.1777 23.6584 15.2102 25.38 15.3524C26.1006 15.3767 28.1242 15.589 29.4229 17.1379C29.318 17.191 27.0085 18.2856 27.0342 20.5626Z" fill="black"/>
<path d="M44.8203 15.0781C46.2943 15.0781 47.3698 15.3802 48.0469 15.9844C48.724 16.5885 49.0625 17.4349 49.0625 18.5234C49.0625 19.0182 48.9844 19.4896 48.8281 19.9375C48.6771 20.3802 48.4271 20.7734 48.0781 21.1172C47.7292 21.4557 47.2682 21.724 46.6953 21.9219C46.1276 22.1198 45.4271 22.2188 44.5938 22.2188H43.375V26.5H41.5V15.0781H44.8203ZM44.6953 16.6328H43.375V20.6562H44.3984C44.987 20.6562 45.487 20.5885 45.8984 20.4531C46.3099 20.3125 46.6224 20.0911 46.8359 19.7891C47.0495 19.487 47.1562 19.0885 47.1562 18.5938C47.1562 17.9323 46.9557 17.4401 46.5547 17.1172C46.1589 16.7943 45.5391 16.6328 44.6953 16.6328ZM53 26.5H51.1562V14.3438H53V26.5ZM59.0156 17.6875C60.1094 17.6875 60.9349 17.9297 61.4922 18.4141C62.0547 18.8984 62.3359 19.6536 62.3359 20.6797V26.5H61.0312L60.6797 25.2734H60.6172C60.3724 25.5859 60.1198 25.8438 59.8594 26.0469C59.599 26.25 59.2969 26.401 58.9531 26.5C58.6146 26.6042 58.2005 26.6562 57.7109 26.6562C57.1953 26.6562 56.7344 26.5625 56.3281 26.375C55.9219 26.1823 55.6016 25.8906 55.3672 25.5C55.1328 25.1094 55.0156 24.6146 55.0156 24.0156C55.0156 23.125 55.3464 22.4557 56.0078 22.0078C56.6745 21.5599 57.6797 21.3125 59.0234 21.2656L60.5234 21.2109V20.7578C60.5234 20.1589 60.3828 19.7318 60.1016 19.4766C59.8255 19.2214 59.4349 19.0938 58.9297 19.0938C58.4974 19.0938 58.0781 19.1562 57.6719 19.2812C57.2656 19.4062 56.8698 19.5599 56.4844 19.7422L55.8906 18.4453C56.3125 18.2214 56.7917 18.0391 57.3281 17.8984C57.8698 17.7578 58.4323 17.6875 59.0156 17.6875ZM60.5156 22.3672L59.3984 22.4062C58.4818 22.4375 57.8385 22.5938 57.4688 22.875C57.099 23.1562 56.9141 23.5417 56.9141 24.0312C56.9141 24.4583 57.0417 24.7708 57.2969 24.9688C57.5521 25.1615 57.888 25.2578 58.3047 25.2578C58.9401 25.2578 59.4661 25.0781 59.8828 24.7188C60.3047 24.3542 60.5156 23.8203 60.5156 23.1172V22.3672ZM63.6016 17.8516H65.6016L67.375 22.7891C67.4531 23.013 67.5234 23.2344 67.5859 23.4531C67.6536 23.6667 67.7109 23.8776 67.7578 24.0859C67.8099 24.2943 67.8516 24.5026 67.8828 24.7109H67.9297C67.9818 24.4401 68.0547 24.138 68.1484 23.8047C68.2474 23.4661 68.3568 23.1276 68.4766 22.7891L70.1797 17.8516H72.1562L68.4453 27.6875C68.2318 28.25 67.9688 28.7292 67.6562 29.125C67.349 29.526 66.9844 29.8281 66.5625 30.0312C66.1406 30.2396 65.6589 30.3438 65.1172 30.3438C64.8568 30.3438 64.6302 30.3281 64.4375 30.2969C64.2448 30.2708 64.0807 30.2422 63.9453 30.2109V28.7422C64.0547 28.7682 64.1927 28.7917 64.3594 28.8125C64.526 28.8333 64.6979 28.8438 64.875 28.8438C65.2031 28.8438 65.487 28.7786 65.7266 28.6484C65.9661 28.5182 66.1693 28.3333 66.3359 28.0938C66.5026 27.8594 66.6406 27.5911 66.75 27.2891L67.0547 26.4766L63.6016 17.8516Z" fill="black"/>
</svg>
