<svg width="24" height="23" viewBox="0 0 24 23" fill="none" xmlns="http://www.w3.org/2000/svg">
<path d="M11.4531 0.632812C11.7812 0.45587 12.1768 0.456014 12.5049 0.632812C12.772 0.777043 12.9159 1.05537 13.0117 1.27051C13.1187 1.51076 13.2317 1.839 13.3691 2.23438L15.2285 7.58203L15.3154 7.82031C15.3339 7.86369 15.338 7.86484 15.3301 7.85547H15.3311C15.3421 7.86856 15.356 7.87916 15.3721 7.88574H15.373C15.3617 7.88114 15.3635 7.88552 15.4102 7.88965C15.4634 7.89433 15.5356 7.89582 15.6641 7.89844L21.3252 8.01465C21.7435 8.02317 22.0901 8.02915 22.3516 8.05664C22.5566 8.0782 22.8187 8.12011 23.0283 8.27051L23.1152 8.3418L23.209 8.44336C23.4121 8.69271 23.498 9.0209 23.4395 9.3418C23.3848 9.6405 23.1642 9.86297 22.9893 10.0205C22.7938 10.1965 22.5171 10.4053 22.1836 10.6582L17.6719 14.0791C17.5698 14.1565 17.513 14.2003 17.4727 14.2354C17.4581 14.248 17.4489 14.256 17.4443 14.2607L17.4277 14.3105C17.4286 14.2986 17.425 14.3019 17.4355 14.3477C17.4475 14.3997 17.4687 14.4688 17.5059 14.5918L19.1455 20.0107C19.2667 20.4114 19.3672 20.7437 19.4219 21.001C19.4708 21.2313 19.5182 21.5408 19.3867 21.8145C19.2253 22.1504 18.9062 22.3827 18.5371 22.4326H18.5361C18.2352 22.4729 17.955 22.3317 17.751 22.2139C17.5233 22.0824 17.2388 21.8844 16.8955 21.6455L12.248 18.4111C12.1429 18.3379 12.0839 18.297 12.0381 18.2695C11.998 18.2455 11.9929 18.2472 12.0039 18.25H11.9531C11.9647 18.2471 11.9604 18.2453 11.9199 18.2695C11.8741 18.2971 11.8144 18.3378 11.709 18.4111L7.0625 21.6455C6.7189 21.8846 6.43383 22.0824 6.20605 22.2139C6.00196 22.3317 5.72191 22.4731 5.4209 22.4326C5.0518 22.3828 4.73273 22.1504 4.57129 21.8145C4.43979 21.5407 4.48718 21.2314 4.53613 21.001C4.59081 20.7437 4.69129 20.4114 4.8125 20.0107L6.45215 14.5918L6.52148 14.3477C6.53207 14.3017 6.52941 14.2984 6.53027 14.3105C6.52904 14.2932 6.52306 14.2758 6.51367 14.2607C6.52012 14.2711 6.52108 14.2664 6.48535 14.2354L6.28516 14.0791L1.77344 10.6582C1.44021 10.4055 1.16409 10.1964 0.96875 10.0205C0.793715 9.8629 0.57218 9.64055 0.517578 9.3418C0.450716 8.97515 0.573221 8.59913 0.842773 8.3418L0.928711 8.27051C1.13844 8.11976 1.40127 8.07821 1.60645 8.05664C1.86794 8.02916 2.21449 8.02318 2.63281 8.01465L8.29395 7.89844C8.422 7.89583 8.49371 7.89431 8.54688 7.88965C8.59396 7.88551 8.59625 7.88117 8.58496 7.88574C8.60111 7.8792 8.61572 7.86878 8.62695 7.85547C8.61932 7.8646 8.62422 7.86349 8.64258 7.82031C8.66348 7.77115 8.68732 7.70334 8.72949 7.58203L10.5889 2.23438C10.7263 1.83901 10.8393 1.51077 10.9463 1.27051C11.0421 1.05533 11.1859 0.777007 11.4531 0.632812Z" fill="#0663CD" stroke="#0663CD" stroke-linecap="round" stroke-linejoin="round"/>
</svg>
