<svg width="127" height="139" viewBox="0 0 127 139" fill="none" xmlns="http://www.w3.org/2000/svg">
<g filter="url(#filter0_d_1_832)">
<path d="M63.2391 26.1543L100.478 47.6543V90.6543L63.2391 112.154L26 90.6543V47.6543L63.2391 26.1543Z" fill="#F7FF00" fill-opacity="0.1" shape-rendering="crispEdges"/>
<path d="M100.978 90.9434L100.728 91.0869L63.4891 112.587L63.2391 112.731L62.9891 112.587L25.7498 91.0869L25.4998 90.9434V47.3652L25.7498 47.2217L62.9891 25.7217L63.2391 25.5771L63.4891 25.7217L100.728 47.2217L100.978 47.3652V90.9434Z" stroke="#F7FF00" stroke-opacity="0.5" shape-rendering="crispEdges"/>
</g>
<g filter="url(#filter1_d_1_832)">
<path fill-rule="evenodd" clip-rule="evenodd" d="M64.0634 46.9707L53.9797 51.0042V56.9132C53.9797 59.433 54.6093 61.9129 55.8112 64.1276C57.013 66.3423 58.7492 68.2217 60.8619 69.595L64.0634 71.6758L67.265 69.595C69.3778 68.2216 71.114 66.3422 72.3158 64.1274C73.5177 61.9126 74.1472 59.4326 74.1471 56.9127V51.0042L64.0634 46.9707ZM70.8266 55.7506C70.9229 55.6576 70.9997 55.5463 71.0525 55.4233C71.1054 55.3002 71.1332 55.1679 71.1344 55.034C71.1355 54.9001 71.11 54.7674 71.0593 54.6434C71.0086 54.5195 70.9337 54.4069 70.8391 54.3122C70.7444 54.2176 70.6318 54.1427 70.5079 54.092C70.3839 54.0413 70.2512 54.0158 70.1173 54.0169C69.9834 54.0181 69.8511 54.0459 69.728 54.0988C69.605 54.1516 69.4937 54.2284 69.4007 54.3247L63.0551 60.6704L60.7429 58.3582C60.6499 58.2619 60.5386 58.1851 60.4156 58.1322C60.2925 58.0794 60.1602 58.0516 60.0263 58.0504C59.8924 58.0492 59.7597 58.0748 59.6357 58.1255C59.5118 58.1762 59.3992 58.251 59.3045 58.3457C59.2099 58.4404 59.135 58.553 59.0843 58.6769C59.0336 58.8008 59.0081 58.9336 59.0092 59.0675C59.0104 59.2014 59.0382 59.3337 59.0911 59.4567C59.1439 59.5798 59.2207 59.691 59.317 59.7841L63.0551 63.5221L70.8266 55.7506Z" fill="#F7FF00" fill-opacity="0.9" shape-rendering="crispEdges"/>
</g>
<g filter="url(#filter2_d_1_832)">
<path d="M68.601 79.7257C68.601 77.8602 69.1944 76.0542 70.2779 74.5628C70.5294 74.2207 70.8058 73.8977 71.1048 73.5963L76.9503 67.7074C77.1217 67.5343 77.3247 67.3957 77.5483 67.299C77.6778 67.2461 77.8114 67.2057 77.9466 67.177C78.3477 67.0998 78.763 67.1531 79.1316 67.3292C79.5001 67.5053 79.8026 67.7949 79.9945 68.1554C80.1865 68.516 80.2579 68.9286 80.1982 69.3327C80.1385 69.7368 79.9508 70.1111 79.6628 70.4008L75.6798 74.4131C75.6331 74.4601 75.5962 74.5158 75.5711 74.5771C75.546 74.6384 75.5332 74.704 75.5334 74.7702C75.5337 74.8365 75.547 74.902 75.5726 74.9631C75.5982 75.0241 75.6355 75.0796 75.6825 75.1262C75.7295 75.1729 75.7853 75.2098 75.8466 75.2349C75.9078 75.26 75.9735 75.2728 76.0397 75.2726C76.1059 75.2723 76.1714 75.259 76.2325 75.2334C76.2936 75.2078 76.349 75.1705 76.3957 75.1235L80.3788 71.1107C80.8736 70.6118 81.172 69.9513 81.2192 69.2503C81.2665 68.5492 81.0594 67.8547 80.6359 67.294V58.8514C80.6359 58.241 80.8784 57.6556 81.31 57.2239C81.7416 56.7923 82.3271 56.5498 82.9375 56.5498C83.5479 56.5498 84.1333 56.7923 84.565 57.2239C84.9966 57.6556 85.2391 58.241 85.2391 58.8514V73.3815C85.2391 76.4036 84.0593 79.3062 81.9503 81.4717L81.0922 82.353C80.1826 81.8568 79.1416 81.6547 78.1124 81.7747L68.601 82.8622V79.7257ZM78.2269 82.777C78.7916 82.7123 79.3635 82.7677 79.9052 82.9396C80.447 83.1115 80.9463 83.396 81.3703 83.7744C81.7944 84.1527 82.1337 84.6165 82.366 85.1352C82.5983 85.6539 82.7183 86.2159 82.7182 86.7842V87.3056C82.7182 88.3753 82.2932 89.4012 81.5368 90.1577C80.7804 90.9141 79.7544 91.3391 78.6847 91.3391H68.8022C67.8496 91.3389 66.9332 90.9743 66.2409 90.3201C65.5485 89.6659 65.1326 88.7717 65.0785 87.8207C65.0243 86.8697 65.336 85.934 65.9496 85.2054C66.5632 84.4769 67.4323 84.0107 68.3787 83.9023L78.2269 82.777ZM48.4336 91.3391C47.3639 91.3391 46.3379 90.9141 45.5815 90.1577C44.8251 89.4012 44.4001 88.3753 44.4001 87.3056V86.7842C44.4 86.2159 44.52 85.6539 44.7523 85.1352C44.9846 84.6165 45.3239 84.1527 45.748 83.7744C46.172 83.396 46.6713 83.1115 47.2131 82.9396C47.7548 82.7677 48.3268 82.7123 48.8914 82.777L58.7397 83.9023C59.686 84.0107 60.5551 84.4769 61.1687 85.2054C61.7823 85.934 62.094 86.8697 62.0398 87.8207C61.9857 88.7717 61.5698 89.6659 60.8774 90.3201C60.1851 90.9743 59.2687 91.3389 58.3161 91.3391H48.4336ZM58.5173 79.7257C58.5173 77.8602 57.9239 76.0542 56.8404 74.5628C56.5889 74.2207 56.3125 73.8977 56.0135 73.5963L50.168 67.7074C49.9966 67.5343 49.7936 67.3957 49.57 67.299C49.4412 67.2465 49.3079 67.2057 49.1717 67.177C48.7706 67.0998 48.3553 67.1531 47.9867 67.3292C47.6182 67.5053 47.3157 67.7949 47.1238 68.1554C46.9318 68.516 46.8605 68.9286 46.9202 69.3327C46.9799 69.7368 47.1675 70.1111 47.4555 70.4008L51.4386 74.4131C51.4852 74.4601 51.5221 74.5158 51.5472 74.5771C51.5723 74.6384 51.5851 74.704 51.5849 74.7702C51.5846 74.8365 51.5713 74.902 51.5457 74.9631C51.5202 75.0241 51.4828 75.0796 51.4358 75.1262C51.3888 75.1729 51.333 75.2098 51.2718 75.2349C51.2105 75.26 51.1448 75.2728 51.0786 75.2726C51.0124 75.2723 50.9469 75.259 50.8858 75.2334C50.8247 75.2078 50.7693 75.1705 50.7226 75.1235L46.7396 71.1107C46.2447 70.6118 45.9463 69.9513 45.8991 69.2503C45.8518 68.5492 46.0589 67.8547 46.4824 67.294V58.8514C46.4824 58.241 46.2399 57.6556 45.8083 57.2239C45.3767 56.7923 44.7912 56.5498 44.1808 56.5498C43.5704 56.5498 42.985 56.7923 42.5533 57.2239C42.1217 57.6556 41.8792 58.241 41.8792 58.8514V73.3815C41.8792 76.4036 43.059 79.3062 45.168 81.4717L46.0261 82.353C46.9357 81.8568 47.9767 81.6547 49.0059 81.7747L58.5173 82.8622V79.7257Z" fill="#F7FF00" fill-opacity="0.9" shape-rendering="crispEdges"/>
</g>
<defs>
<filter id="filter0_d_1_832" x="0" y="0" width="126.478" height="138.309" filterUnits="userSpaceOnUse" color-interpolation-filters="sRGB">
<feFlood flood-opacity="0" result="BackgroundImageFix"/>
<feColorMatrix in="SourceAlpha" type="matrix" values="0 0 0 0 0 0 0 0 0 0 0 0 0 0 0 0 0 0 127 0" result="hardAlpha"/>
<feOffset/>
<feGaussianBlur stdDeviation="12.5"/>
<feComposite in2="hardAlpha" operator="out"/>
<feColorMatrix type="matrix" values="0 0 0 0 0.968627 0 0 0 0 1 0 0 0 0 0 0 0 0 0.5 0"/>
<feBlend mode="normal" in2="BackgroundImageFix" result="effect1_dropShadow_1_832"/>
<feBlend mode="normal" in="SourceGraphic" in2="effect1_dropShadow_1_832" result="shape"/>
</filter>
<filter id="filter1_d_1_832" x="52.9797" y="45.9707" width="22.1674" height="26.7051" filterUnits="userSpaceOnUse" color-interpolation-filters="sRGB">
<feFlood flood-opacity="0" result="BackgroundImageFix"/>
<feColorMatrix in="SourceAlpha" type="matrix" values="0 0 0 0 0 0 0 0 0 0 0 0 0 0 0 0 0 0 127 0" result="hardAlpha"/>
<feOffset/>
<feGaussianBlur stdDeviation="0.5"/>
<feComposite in2="hardAlpha" operator="out"/>
<feColorMatrix type="matrix" values="0 0 0 0 0.968627 0 0 0 0 1 0 0 0 0 0 0 0 0 0.8 0"/>
<feBlend mode="normal" in2="BackgroundImageFix" result="effect1_dropShadow_1_832"/>
<feBlend mode="normal" in="SourceGraphic" in2="effect1_dropShadow_1_832" result="shape"/>
</filter>
<filter id="filter2_d_1_832" x="40.8792" y="55.5498" width="45.3599" height="36.7891" filterUnits="userSpaceOnUse" color-interpolation-filters="sRGB">
<feFlood flood-opacity="0" result="BackgroundImageFix"/>
<feColorMatrix in="SourceAlpha" type="matrix" values="0 0 0 0 0 0 0 0 0 0 0 0 0 0 0 0 0 0 127 0" result="hardAlpha"/>
<feOffset/>
<feGaussianBlur stdDeviation="0.5"/>
<feComposite in2="hardAlpha" operator="out"/>
<feColorMatrix type="matrix" values="0 0 0 0 0.968627 0 0 0 0 1 0 0 0 0 0 0 0 0 0.8 0"/>
<feBlend mode="normal" in2="BackgroundImageFix" result="effect1_dropShadow_1_832"/>
<feBlend mode="normal" in="SourceGraphic" in2="effect1_dropShadow_1_832" result="shape"/>
</filter>
</defs>
</svg>
