<svg width="18" height="18" viewBox="0 0 18 18" fill="none" xmlns="http://www.w3.org/2000/svg">
<g clip-path="url(#clip0_240_852)">
<g filter="url(#filter0_d_240_852)">
<circle cx="9" cy="9" r="9" fill="white"/>
<circle cx="9" cy="9" r="10" stroke="#FF0000" stroke-width="2"/>
</g>
<path d="M11.0996 5.47656C11.472 5.04413 12.1221 5.0039 12.543 5.39355C12.9532 5.77361 12.9868 6.41687 12.624 6.83887L7.73242 12.5234C7.54228 12.7444 7.26509 12.875 6.96973 12.875C6.71137 12.8749 6.46748 12.7746 6.2832 12.6016L6.20801 12.5234L4.25195 10.249C3.88884 9.82701 3.92166 9.18379 4.33203 8.80371C4.75296 8.41412 5.40312 8.45504 5.77539 8.8877L6.96973 10.2754L11.0996 5.47656Z" fill="#FE7A4E" stroke="#FF0000"/>
</g>
<defs>
<filter id="filter0_d_240_852" x="-10.6779" y="-10.6779" width="39.3557" height="39.3557" filterUnits="userSpaceOnUse" color-interpolation-filters="sRGB">
<feFlood flood-opacity="0" result="BackgroundImageFix"/>
<feColorMatrix in="SourceAlpha" type="matrix" values="0 0 0 0 0 0 0 0 0 0 0 0 0 0 0 0 0 0 127 0" result="hardAlpha"/>
<feOffset/>
<feGaussianBlur stdDeviation="4.33893"/>
<feComposite in2="hardAlpha" operator="out"/>
<feColorMatrix type="matrix" values="0 0 0 0 0 0 0 0 0 0 0 0 0 0 0 0 0 0 0.4 0"/>
<feBlend mode="normal" in2="BackgroundImageFix" result="effect1_dropShadow_240_852"/>
<feBlend mode="normal" in="SourceGraphic" in2="effect1_dropShadow_240_852" result="shape"/>
</filter>
<clipPath id="clip0_240_852">
<rect width="18" height="18" fill="white"/>
</clipPath>
</defs>
</svg>
