<svg width="18" height="18" viewBox="0 0 18 18" fill="none" xmlns="http://www.w3.org/2000/svg">
<g clip-path="url(#clip0_1_470)">
<g filter="url(#filter0_d_1_470)">
<circle cx="9" cy="9" r="9" fill="white"/>
<circle cx="9" cy="9" r="10" stroke="#62ABFF" stroke-width="2"/>
</g>
<path d="M11.2891 5.63965C11.5697 5.31377 12.0569 5.28435 12.373 5.57715C12.684 5.86522 12.7095 6.35501 12.4336 6.67578L7.54297 12.3604C7.39917 12.5275 7.19056 12.625 6.96973 12.625C6.74909 12.6249 6.54117 12.5273 6.39746 12.3604L4.44141 10.0859C4.16543 9.76515 4.19099 9.27531 4.50195 8.9873C4.81821 8.6946 5.30538 8.72471 5.58594 9.05078L6.96973 10.6582L11.2891 5.63965Z" fill="#62ABFF" stroke="#62ABFF" stroke-width="0.5"/>
</g>
<defs>
<filter id="filter0_d_1_470" x="-10.6779" y="-10.6779" width="39.3557" height="39.3557" filterUnits="userSpaceOnUse" color-interpolation-filters="sRGB">
<feFlood flood-opacity="0" result="BackgroundImageFix"/>
<feColorMatrix in="SourceAlpha" type="matrix" values="0 0 0 0 0 0 0 0 0 0 0 0 0 0 0 0 0 0 127 0" result="hardAlpha"/>
<feOffset/>
<feGaussianBlur stdDeviation="4.33893"/>
<feComposite in2="hardAlpha" operator="out"/>
<feColorMatrix type="matrix" values="0 0 0 0 0 0 0 0 0 0 0 0 0 0 0 0 0 0 0.4 0"/>
<feBlend mode="normal" in2="BackgroundImageFix" result="effect1_dropShadow_1_470"/>
<feBlend mode="normal" in="SourceGraphic" in2="effect1_dropShadow_1_470" result="shape"/>
</filter>
<clipPath id="clip0_1_470">
<rect width="18" height="18" fill="white"/>
</clipPath>
</defs>
</svg>
